<?xml version="1.0" encoding="UTF-8" standalone="no"?>
<!DOCTYPE svg PUBLIC "-//W3C//DTD SVG 1.1//EN" "http://www.w3.org/Graphics/SVG/1.1/DTD/svg11.dtd">
<svg width="100%" height="100%" viewBox="0 0 1080 174" version="1.1" xmlns="http://www.w3.org/2000/svg" xmlns:xlink="http://www.w3.org/1999/xlink" xml:space="preserve" xmlns:serif="http://www.serif.com/" style="fill-rule:evenodd;clip-rule:evenodd;stroke-linejoin:round;stroke-miterlimit:2;">
    <g id="Artboard7" transform="matrix(1,0,0,1,1174.75,0)">
        <rect x="-1174.76" y="0" width="1080" height="174" style="fill:none;"/>
        <clipPath id="_clip1">
            <rect x="-1174.76" y="0" width="1080" height="174"/>
        </clipPath>
        <g clip-path="url(#_clip1)">
            <g transform="matrix(1085,0,0,1085,-1176.86,86)">
                <rect x="0.002" y="-0.079" width="0.995" height="0.16" style="fill:url(#_Linear2);"/>
            </g>
            <g transform="matrix(0.242985,0,0,0.242985,-1019.54,50.6997)">
                <g transform="matrix(1,0,0,1,912.235,29.3944)">
                    <path d="M0,66.55L0.441,66.55L31.802,-18.846L47.557,-18.846L6.625,85.396L-6.921,85.396L-47.558,-18.846L-31.361,-18.846L0,66.55Z" style="fill:white;fill-rule:nonzero;"/>
                </g>
                <g transform="matrix(-1,0,0,1,4140.53,-5734.47)">
                    <rect x="3153.8" y="5745.01" width="14.576" height="104.242" style="fill:white;"/>
                </g>
                <g transform="matrix(1,0,0,1,1031.94,48.9774)">
                    <path d="M0,27.385L39.017,27.385L19.582,-21.497L0,27.385ZM-15.607,65.813L-31.803,65.813L13.398,-38.428L26.649,-38.428L71.408,65.813L54.918,65.813L44.317,40.195L-5.153,40.195L-15.607,65.813Z" style="fill:white;fill-rule:nonzero;"/>
                </g>
                <g transform="matrix(1,0,0,1,1119.83,36.4624)">
                    <path d="M0,55.065C0.784,58.796 2.503,61.889 5.153,64.341C7.804,66.795 11.091,68.022 15.019,68.022C18.158,68.022 20.735,67.433 22.748,66.255C24.759,65.077 26.355,63.483 27.533,61.47C28.711,59.459 29.544,57.104 30.036,54.402C30.526,51.704 30.772,48.833 30.772,45.79L30.772,-25.914L45.349,-25.914L45.349,46.378C45.349,50.011 44.955,53.839 44.171,57.862C43.384,61.889 41.911,65.618 39.754,69.052C37.593,72.489 34.575,75.335 30.698,77.592C26.82,79.849 21.839,80.979 15.754,80.979C7.804,80.979 1.325,78.917 -3.681,74.794C-8.687,70.672 -11.977,65.372 -13.545,58.893L0,55.065Z" style="fill:white;fill-rule:nonzero;"/>
                </g>
                <g transform="matrix(1,0,0,1,1207.73,48.9774)">
                    <path d="M0,27.385L39.017,27.385L19.582,-21.497L0,27.385ZM-15.607,65.813L-31.803,65.813L13.398,-38.428L26.649,-38.428L71.408,65.813L54.918,65.813L44.317,40.195L-5.153,40.195L-15.607,65.813Z" style="fill:white;fill-rule:nonzero;"/>
                </g>
                <g transform="matrix(1,0,0,1,1344.37,95.5025)">
                    <path d="M0,-65.666C-2.061,-68.512 -4.858,-70.842 -8.392,-72.66C-11.926,-74.475 -15.901,-75.384 -20.318,-75.384C-22.674,-75.384 -25.055,-75.064 -27.459,-74.427C-29.865,-73.787 -32.049,-72.756 -34.011,-71.334C-35.976,-69.911 -37.569,-68.144 -38.796,-66.034C-40.024,-63.922 -40.637,-61.396 -40.637,-58.452C-40.637,-55.603 -40.072,-53.225 -38.943,-51.311C-37.815,-49.397 -36.293,-47.777 -34.379,-46.452C-32.465,-45.127 -30.208,-43.998 -27.606,-43.065C-25.007,-42.132 -22.232,-41.175 -19.287,-40.195C-15.754,-39.113 -12.172,-37.887 -8.539,-36.514C-4.909,-35.138 -1.619,-33.323 1.325,-31.066C4.271,-28.807 6.674,-25.986 8.54,-22.6C10.403,-19.214 11.338,-14.918 11.338,-9.717C11.338,-4.318 10.33,0.369 8.319,4.344C6.306,8.319 3.631,11.609 0.295,14.209C-3.043,16.811 -6.896,18.75 -11.263,20.024C-15.632,21.299 -20.122,21.938 -24.735,21.938C-31.312,21.938 -37.669,20.662 -43.802,18.11C-49.938,15.559 -55.017,11.779 -59.041,6.773L-47.703,-2.797C-45.251,0.835 -41.961,3.78 -37.839,6.037C-33.716,8.296 -29.251,9.423 -24.44,9.423C-21.988,9.423 -19.533,9.081 -17.079,8.393C-14.626,7.707 -12.393,6.626 -10.38,5.154C-8.369,3.681 -6.724,1.841 -5.447,-0.368C-4.173,-2.576 -3.533,-5.249 -3.533,-8.392C-3.533,-11.532 -4.196,-14.157 -5.521,-16.269C-6.846,-18.378 -8.638,-20.171 -10.895,-21.643C-13.154,-23.115 -15.779,-24.367 -18.772,-25.397C-21.768,-26.428 -24.933,-27.482 -28.269,-28.563C-31.606,-29.543 -34.895,-30.746 -38.134,-32.17C-41.372,-33.592 -44.269,-35.41 -46.82,-37.618C-49.374,-39.827 -51.435,-42.55 -53.004,-45.79C-54.575,-49.029 -55.359,-53.052 -55.359,-57.863C-55.359,-63.064 -54.306,-67.53 -52.194,-71.261C-50.085,-74.99 -47.336,-78.082 -43.949,-80.537C-40.563,-82.989 -36.734,-84.781 -32.465,-85.911C-28.195,-87.038 -23.902,-87.604 -19.582,-87.604C-13.497,-87.604 -7.803,-86.523 -2.503,-84.365C2.798,-82.205 7.067,-79.308 10.307,-75.678L0,-65.666Z" style="fill:white;fill-rule:nonzero;"/>
                </g>
                <g transform="matrix(1,0,0,1,930.786,261.246)">
                    <path d="M0,-50.06C-2.16,-52.807 -4.982,-54.992 -8.466,-56.612C-11.951,-58.231 -15.313,-59.041 -18.551,-59.041C-20.222,-59.041 -21.915,-58.894 -23.631,-58.6C-25.35,-58.305 -26.896,-57.739 -28.269,-56.906C-29.645,-56.071 -30.797,-54.992 -31.729,-53.667C-32.663,-52.342 -33.128,-50.649 -33.128,-48.588C-33.128,-46.821 -32.76,-45.349 -32.023,-44.17C-31.287,-42.993 -30.208,-41.962 -28.784,-41.079C-27.362,-40.195 -25.669,-39.386 -23.704,-38.649C-21.742,-37.913 -19.533,-37.152 -17.079,-36.367C-13.545,-35.189 -9.864,-33.887 -6.036,-32.465C-2.208,-31.041 1.274,-29.153 4.417,-26.797C7.558,-24.441 10.159,-21.519 12.221,-18.037C14.282,-14.551 15.313,-10.208 15.313,-5.006C15.313,0.982 14.208,6.161 12,10.527C9.791,14.896 6.821,18.503 3.092,21.349C-0.64,24.197 -4.909,26.306 -9.717,27.68C-14.527,29.053 -19.485,29.741 -24.588,29.741C-32.049,29.741 -39.263,28.439 -46.231,25.839C-53.202,23.24 -58.992,19.534 -63.604,14.723L-47.114,-2.061C-44.563,1.081 -41.202,3.706 -37.029,5.815C-32.858,7.927 -28.71,8.981 -24.588,8.981C-22.725,8.981 -20.907,8.786 -19.141,8.392C-17.373,8.001 -15.827,7.361 -14.502,6.478C-13.177,5.595 -12.124,4.417 -11.337,2.944C-10.553,1.472 -10.159,-0.295 -10.159,-2.356C-10.159,-4.318 -10.651,-5.986 -11.631,-7.362C-12.613,-8.735 -14.013,-9.987 -15.827,-11.117C-17.645,-12.244 -19.901,-13.274 -22.601,-14.208C-25.301,-15.14 -28.367,-16.145 -31.803,-17.227C-35.141,-18.306 -38.405,-19.582 -41.594,-21.055C-44.784,-22.527 -47.63,-24.416 -50.133,-26.723C-52.636,-29.028 -54.649,-31.826 -56.17,-35.116C-57.692,-38.403 -58.452,-42.404 -58.452,-47.115C-58.452,-52.906 -57.273,-57.863 -54.918,-61.986C-52.563,-66.108 -49.471,-69.495 -45.643,-72.145C-41.814,-74.795 -37.496,-76.732 -32.686,-77.961C-27.878,-79.187 -23.019,-79.801 -18.109,-79.801C-12.22,-79.801 -6.209,-78.72 -0.073,-76.562C6.06,-74.402 11.434,-71.211 16.049,-66.992L0,-50.06Z" style="fill:white;fill-rule:nonzero;"/>
                </g>
                <g transform="matrix(1,0,0,1,962.734,184.095)">
                    <path d="M0,104.242L0,0L70.084,0L70.084,21.202L24.294,21.202L24.294,40.931L67.581,40.931L67.581,61.102L24.294,61.102L24.294,82.746L72.733,82.746L72.733,104.242L0,104.242Z" style="fill:white;fill-rule:nonzero;"/>
                </g>
                <g transform="matrix(1,0,0,1,1126.83,183.8)">
                    <path d="M0,104.684C-6.823,106.351 -14.259,107.187 -22.307,107.187C-30.65,107.187 -38.332,105.862 -45.349,103.211C-52.367,100.561 -58.404,96.832 -63.458,92.021C-68.515,87.213 -72.465,81.446 -75.311,74.722C-78.158,67.999 -79.58,60.514 -79.58,52.268C-79.58,43.927 -78.134,36.367 -75.237,29.594C-72.343,22.822 -68.342,17.057 -63.237,12.294C-58.135,7.535 -52.146,3.879 -45.274,1.325C-38.405,-1.226 -30.993,-2.503 -23.042,-2.503C-14.797,-2.503 -7.141,-1.252 -0.074,1.252C6.993,3.755 12.735,7.118 17.152,11.337L1.251,29.447C-1.203,26.601 -4.442,24.271 -8.466,22.454C-12.492,20.638 -17.057,19.729 -22.159,19.729C-26.576,19.729 -30.65,20.539 -34.38,22.159C-38.111,23.779 -41.35,26.038 -44.097,28.932C-46.846,31.828 -48.98,35.263 -50.502,39.238C-52.024,43.213 -52.784,47.557 -52.784,52.268C-52.784,57.079 -52.098,61.496 -50.723,65.519C-49.349,69.545 -47.313,73.005 -44.612,75.899C-41.914,78.796 -38.575,81.053 -34.601,82.672C-30.625,84.292 -26.086,85.101 -20.981,85.101C-18.036,85.101 -15.239,84.881 -12.589,84.439C-9.938,83.997 -7.486,83.287 -5.227,82.304L-5.227,63.311L-25.104,63.311L-25.104,42.993L17.889,42.993L17.889,98.205C12.784,100.856 6.821,103.016 0,104.684" style="fill:white;fill-rule:nonzero;"/>
                </g>
                <g transform="matrix(1,0,0,1,1250.5,209.051)">
                    <path d="M0,57.127C-2.111,62.28 -5.13,66.697 -9.055,70.378C-12.981,74.059 -17.719,76.93 -23.263,78.991C-28.81,81.052 -34.968,82.083 -41.74,82.083C-48.612,82.083 -54.796,81.052 -60.292,78.991C-65.79,76.93 -70.451,74.059 -74.279,70.378C-78.107,66.697 -81.052,62.28 -83.113,57.127C-85.175,51.974 -86.205,46.257 -86.205,39.974L-86.205,-24.956L-61.176,-24.956L-61.176,37.913C-61.176,40.761 -60.808,43.46 -60.071,46.011C-59.335,48.564 -58.208,50.846 -56.685,52.857C-55.164,54.87 -53.151,56.464 -50.648,57.642C-48.146,58.82 -45.127,59.409 -41.594,59.409C-38.06,59.409 -35.041,58.82 -32.538,57.642C-30.035,56.464 -27.999,54.87 -26.429,52.857C-24.859,50.846 -23.729,48.564 -23.042,46.011C-22.356,43.46 -22.011,40.761 -22.011,37.913L-22.011,-24.956L3.166,-24.956L3.166,39.974C3.166,46.257 2.11,51.974 0,57.127" style="fill:white;fill-rule:nonzero;"/>
                </g>
                <g transform="matrix(1,0,0,1,1328.76,256.387)">
                    <path d="M0,-40.342C0,-42.795 -0.521,-44.782 -1.556,-46.305C-2.591,-47.826 -3.923,-49.004 -5.549,-49.839C-7.178,-50.672 -9.002,-51.238 -11.024,-51.532C-13.047,-51.826 -14.995,-51.974 -16.868,-51.974L-30.33,-51.974L-30.33,-27.68L-18.347,-27.68C-16.276,-27.68 -14.155,-27.85 -11.983,-28.195C-9.814,-28.538 -7.843,-29.152 -6.066,-30.036C-4.291,-30.919 -2.837,-32.194 -1.703,-33.864C-0.568,-35.531 0,-37.692 0,-40.342M1.03,31.95L-21.603,-9.423L-30.184,-9.423L-30.184,31.95L-54.771,31.95L-54.771,-72.292L-15.019,-72.292C-10.012,-72.292 -5.131,-71.777 -0.368,-70.746C4.392,-69.716 8.661,-67.971 12.441,-65.519C16.219,-63.065 19.237,-59.825 21.496,-55.801C23.753,-51.776 24.883,-46.77 24.883,-40.784C24.883,-33.717 22.969,-27.777 19.141,-22.968C15.313,-18.158 10.012,-14.723 3.239,-12.662L30.478,31.95L1.03,31.95Z" style="fill:white;fill-rule:nonzero;"/>
                </g>
                <g transform="matrix(1,0,0,1,1453.31,236.657)">
                    <path d="M0,-0.883C0,-5.397 -0.736,-9.618 -2.208,-13.545C-3.681,-17.47 -5.719,-20.833 -8.318,-23.631C-10.92,-26.428 -14.061,-28.637 -17.741,-30.257C-21.422,-31.876 -25.472,-32.686 -29.889,-32.686C-34.306,-32.686 -38.331,-31.876 -41.962,-30.257C-45.594,-28.637 -48.734,-26.428 -51.385,-23.631C-54.035,-20.833 -56.073,-17.47 -57.495,-13.545C-58.919,-9.618 -59.63,-5.397 -59.63,-0.883C-59.63,3.828 -58.894,8.172 -57.421,12.147C-55.949,16.122 -53.913,19.534 -51.311,22.38C-48.711,25.228 -45.594,27.459 -41.962,29.079C-38.331,30.699 -34.306,31.509 -29.889,31.509C-25.472,31.509 -21.447,30.699 -17.815,29.079C-14.185,27.459 -11.042,25.228 -8.392,22.38C-5.742,19.534 -3.681,16.122 -2.208,12.147C-0.736,8.172 0,3.828 0,-0.883M26.944,-0.883C26.944,7.362 25.521,14.896 22.675,21.717C19.826,28.541 15.876,34.38 10.822,39.238C5.766,44.097 -0.246,47.851 -7.214,50.502C-14.185,53.152 -21.742,54.477 -29.889,54.477C-38.037,54.477 -45.568,53.152 -52.488,50.502C-59.409,47.851 -65.397,44.097 -70.451,39.238C-75.508,34.38 -79.458,28.541 -82.304,21.717C-85.151,14.896 -86.573,7.362 -86.573,-0.883C-86.573,-9.225 -85.151,-16.759 -82.304,-23.484C-79.458,-30.206 -75.508,-35.925 -70.451,-40.636C-65.397,-45.348 -59.409,-48.978 -52.488,-51.532C-45.568,-54.083 -38.037,-55.36 -29.889,-55.36C-21.742,-55.36 -14.185,-54.083 -7.214,-51.532C-0.246,-48.978 5.766,-45.348 10.822,-40.636C15.876,-35.925 19.826,-30.206 22.675,-23.484C25.521,-16.759 26.944,-9.225 26.944,-0.883" style="fill:white;fill-rule:nonzero;"/>
                </g>
                <g transform="matrix(1,0,0,1,282.932,122.828)">
                    <path d="M0,-123.341C0.104,-123.695 0.146,-124.059 0.146,-124.445C0.146,-126.456 -1.453,-128.08 -3.458,-128.143L-48.542,-128.143C-51.62,-128.143 -54.228,-126.2 -55.245,-123.476L-99.917,0.053C-100.01,0.354 -100.073,0.74 -100.073,1.104C-100.073,3.12 -98.433,4.771 -96.443,4.802L-51.333,4.802C-48.292,4.802 -45.672,2.865 -44.641,0.177L0,-123.341Z" style="fill:white;fill-rule:nonzero;"/>
                </g>
                <g transform="matrix(1,0,0,1,138.274,304.133)">
                    <path d="M0,-133.2L0,-133.163L-119.207,-133.163C-142.886,-133.163 -167.009,-119.259 -176.737,-93.783C-180.758,-82.867 -189.074,-60.515 -198.605,-33.549C-198.605,-33.549 -198.605,-33.476 -198.568,-33.429C-199.453,-30.882 -199.927,-28.122 -199.927,-25.3C-199.927,-11.374 -188.647,-0.099 -174.727,-0.099L-47.969,-0.099C-45.016,0 -42.324,-1.922 -41.157,-4.916C-41.157,-4.916 -34.215,-24.357 -32.543,-28.794C-32.491,-28.914 -32.439,-29.044 -32.398,-29.164L-32.392,-29.174C-32.314,-29.512 -32.257,-29.867 -32.257,-30.247C-32.257,-32.267 -33.861,-33.929 -35.871,-33.996L-35.871,-33.987L-141.454,-33.996L-141.548,-33.996C-143.558,-34.028 -145.177,-35.668 -145.177,-37.694C-145.177,-37.944 -145.131,-38.194 -145.094,-38.434L-145.131,-38.434C-145.131,-38.434 -145.094,-38.632 -144.99,-38.913C-143.235,-43.62 -128.95,-82.898 -124.826,-94.636C-123.846,-97.428 -121.186,-99.432 -118.066,-99.432L-12.03,-99.432C-8.968,-99.432 -6.322,-101.407 -5.327,-104.104L-5.317,-104.135C-4.015,-107.651 1.677,-123.539 3.338,-127.997C3.365,-128.112 3.422,-128.248 3.448,-128.362C3.557,-128.716 3.64,-129.071 3.64,-129.434C3.64,-131.476 2,-133.163 0,-133.2" style="fill:white;fill-rule:nonzero;"/>
                </g>
                <g transform="matrix(1,0,0,1,648.681,265.257)">
                    <path d="M0,-55.375C-1.703,-50.651 -16.03,-11.348 -20.165,0.359C-21.103,3.125 -23.764,5.166 -26.94,5.166L-77.638,5.166C-79.627,5.098 -81.283,3.463 -81.283,1.463C-81.283,1.182 -81.185,0.51 -81.07,0.229C-79.346,-4.484 -64.952,-43.777 -60.817,-55.458C-59.869,-58.281 -57.192,-60.301 -54.062,-60.301C-53.979,-60.301 -3.432,-60.27 -3.432,-60.27L-3.432,-60.301C-1.453,-60.26 0.182,-58.62 0.182,-56.594C0.182,-56.312 0.104,-55.656 0,-55.375M58.517,-69.04C58.517,-82.965 47.203,-94.256 33.293,-94.256L-93.381,-94.256C-94.548,-94.256 -98.667,-93.818 -100.292,-89.372C-100.594,-88.485 -143.475,30.158 -143.98,31.512C-144.297,32.367 -144.579,33.105 -144.761,33.621C-144.793,33.778 -144.881,33.898 -144.902,34.028L-144.902,34.059C-144.917,34.158 -144.949,34.314 -145.011,34.429C-145.027,34.663 -145.1,34.913 -145.1,35.163C-145.1,37.189 -143.454,38.814 -141.418,38.845L-141.418,38.881C-141.418,38.881 3.416,38.845 3.51,38.845C15.243,38.845 24.576,30.96 27.939,20.003C31.924,9.113 47.635,-33.835 57.174,-60.791L57.174,-60.926C58.028,-63.457 58.517,-66.212 58.517,-69.04" style="fill:white;fill-rule:nonzero;"/>
                </g>
                <g transform="matrix(1,0,0,1,471.782,93.9565)">
                    <path d="M0,-65.576L44.219,-65.576C46.193,-65.524 47.818,-63.904 47.818,-61.879C47.818,-61.472 47.75,-61.072 47.656,-60.702C34.741,-25.32 16.582,25.424 15.431,28.508C15.399,28.644 15.327,28.757 15.274,28.872L15.274,28.893C15.197,29.226 15.14,29.628 15.14,29.976C15.14,31.987 16.769,33.643 18.759,33.695L62.66,33.695C65.722,33.695 68.347,31.737 69.352,29.008C69.352,29.008 69.389,28.977 69.389,28.945C70.264,26.633 89.012,-25.341 101.927,-61.025L101.963,-61.087C103,-63.686 105.494,-65.524 108.473,-65.576L165.978,-65.576C169.04,-65.576 171.655,-67.529 172.654,-70.263L172.685,-70.295C173.956,-73.773 179.549,-89.647 181.221,-94.083C181.268,-94.204 181.304,-94.339 181.335,-94.469C181.44,-94.823 181.523,-95.187 181.523,-95.573C181.523,-97.594 179.914,-99.224 177.888,-99.271L12.082,-99.271C9.015,-99.271 6.375,-97.333 5.385,-94.604C5.369,-94.589 5.354,-94.557 5.354,-94.557C4.073,-91.074 -1.687,-75.19 -3.348,-70.763C-3.365,-70.643 -3.432,-70.493 -3.457,-70.378C-3.583,-70.044 -3.63,-69.675 -3.63,-69.289C-3.63,-67.248 -2.01,-65.628 0,-65.576" style="fill:white;fill-rule:nonzero;"/>
                </g>
                <g transform="matrix(1,0,0,1,11.4647,127.766)">
                    <path d="M0,-133.117L-135.762,-133.117C-164.004,-131.159 -186.996,-110.025 -192.053,-82.752L-192.053,-82.685C-192.386,-81.034 -192.569,-79.341 -192.569,-77.58C-192.569,-63.66 -181.294,-52.37 -167.358,-52.37L-88.528,-52.37C-85.465,-52.13 -82.939,-49.922 -82.252,-47.027C-82.122,-46.683 -82.033,-46.245 -82.033,-45.506L-82.033,-45.391C-82.033,-45.235 -82.043,-45.157 -82.043,-45.058L-82.043,-45.006C-82.309,-38.829 -87.413,-33.846 -93.667,-33.846L-201.828,-33.846C-204.885,-33.846 -207.515,-31.903 -208.499,-29.195L-217.212,-4.802C-217.321,-4.453 -217.389,-4.099 -217.389,-3.729C-217.389,-1.719 -215.764,-0.047 -213.754,0L-82.356,0C-52.188,0 -27.08,-21.727 -21.795,-50.381C-21.795,-50.411 -21.774,-50.411 -21.774,-50.411C-21.424,-52.099 -21.253,-53.807 -21.253,-55.578C-21.253,-69.483 -32.533,-80.898 -46.464,-80.898L-124.836,-80.898C-128.117,-80.898 -130.882,-83.189 -131.643,-86.268C-131.674,-86.647 -131.82,-87.033 -131.82,-87.773L-131.81,-88.257C-131.554,-94.48 -126.456,-99.401 -120.191,-99.401L-11.988,-99.401C-8.911,-99.401 -6.302,-101.344 -5.312,-104.068L3.442,-128.341C3.531,-128.68 3.599,-129.029 3.599,-129.398C3.599,-131.445 1.984,-133.081 0,-133.117" style="fill:white;fill-rule:nonzero;"/>
                </g>
                <g transform="matrix(1,0,0,1,205.596,127.766)">
                    <path d="M0,-133.117L-135.746,-133.117C-163.989,-131.159 -186.991,-110.025 -192.032,-82.752C-192.048,-82.716 -192.048,-82.716 -192.048,-82.685C-192.36,-81.034 -192.558,-79.341 -192.558,-77.58C-192.558,-63.66 -181.278,-52.37 -167.353,-52.37L-88.497,-52.37C-85.444,-52.151 -82.924,-49.922 -82.221,-47.027C-82.132,-46.683 -82.018,-46.245 -82.018,-45.506L-82.018,-45.006C-82.304,-38.829 -87.392,-33.861 -93.647,-33.861L-201.802,-33.846C-204.849,-33.846 -207.49,-31.924 -208.494,-29.195L-217.207,-4.802C-217.311,-4.453 -217.379,-4.115 -217.379,-3.729C-217.379,-1.719 -215.738,-0.047 -213.749,0L-82.351,0C-52.188,0 -27.055,-21.727 -21.753,-50.381L-21.753,-50.443C-21.415,-52.099 -21.242,-53.807 -21.242,-55.578C-21.242,-69.483 -32.512,-80.898 -46.448,-80.898L-124.815,-80.898C-128.112,-80.898 -130.877,-83.189 -131.601,-86.268C-131.648,-86.647 -131.814,-87.033 -131.814,-87.773L-131.805,-88.257C-131.539,-94.48 -126.435,-99.417 -120.186,-99.417L-11.962,-99.417C-8.885,-99.417 -6.291,-101.344 -5.286,-104.068L3.463,-128.341C3.599,-128.68 3.635,-129.029 3.635,-129.398C3.635,-131.445 2.042,-133.081 0,-133.117" style="fill:white;fill-rule:nonzero;"/>
                </g>
                <g transform="matrix(1,0,0,1,456.872,127.766)">
                    <path d="M0,-133.117L-118.962,-133.117C-147.188,-131.175 -170.196,-110.041 -175.258,-82.752L-175.258,-82.685C-175.565,-81.034 -175.769,-79.341 -175.769,-77.58C-175.769,-63.66 -164.473,-52.37 -150.547,-52.37L-71.706,-52.37C-68.634,-52.151 -66.118,-49.922 -65.42,-47.027C-65.337,-46.683 -65.212,-46.245 -65.212,-45.506L-65.212,-45.391C-65.212,-45.256 -65.233,-45.157 -65.233,-45.058L-65.233,-45.006C-65.483,-38.829 -70.586,-33.861 -76.883,-33.861L-185.012,-33.861C-188.08,-33.861 -190.689,-31.924 -191.673,-29.216L-200.412,-4.802C-200.511,-4.453 -200.557,-4.115 -200.557,-3.729C-200.557,-1.719 -198.958,-0.047 -196.933,0L-65.556,0C-35.35,0 -10.275,-21.727 -4.984,-50.381L-4.984,-50.443C-4.619,-52.099 -4.432,-53.807 -4.432,-55.578C-4.432,-69.483 -15.723,-80.898 -29.648,-80.898L-108.02,-80.898C-111.316,-80.898 -114.041,-83.189 -114.806,-86.268C-114.863,-86.647 -115.009,-87.033 -115.009,-87.788L-114.978,-88.257C-114.744,-94.48 -109.645,-99.417 -103.385,-99.417L-11.993,-99.417C-8.916,-99.417 -6.306,-101.344 -5.317,-104.068L3.448,-128.341C3.546,-128.68 3.635,-129.029 3.635,-129.398C3.635,-131.445 1.989,-133.081 0,-133.117" style="fill:white;fill-rule:nonzero;"/>
                </g>
                <g transform="matrix(1,0,0,1,256.101,251.826)">
                    <path d="M0,-28.642C-0.099,-28.606 -10.775,-28.606 -22.086,-28.606L-24.357,-28.606C-36.491,-28.606 -48.604,-28.606 -48.656,-28.642C-51.817,-28.737 -54.442,-31.013 -55.166,-33.975C-55.281,-34.559 -55.364,-34.746 -55.364,-35.465C-55.364,-35.527 -55.349,-35.548 -55.349,-35.6L-55.349,-35.965C-55.114,-41.6 -50.88,-46.204 -45.375,-46.974C-45.219,-47.026 -45.073,-47.041 -44.923,-47.078L5.723,-47.078C8.687,-46.791 11.145,-44.6 11.837,-41.756C11.895,-41.37 12.03,-40.954 12.03,-40.246L12.03,-39.745L11.999,-39.73C11.983,-39.042 11.895,-38.361 11.728,-37.673C11.446,-36.834 11.093,-35.897 10.733,-34.892C8.786,-31.163 4.9,-28.642 0.417,-28.606C0.266,-28.606 0.167,-28.642 0.052,-28.642L0,-28.642ZM71.06,-55.692C71.06,-69.618 59.801,-80.887 45.85,-80.887L-46.933,-80.887L-46.979,-80.856L-50.807,-80.856C-74.456,-80.856 -98.615,-66.951 -108.333,-41.47C-109.811,-37.491 -111.853,-31.986 -114.275,-25.309C-114.743,-24.258 -115.165,-23.268 -115.53,-22.216C-118.983,-12.655 -122.54,-2.874 -125.82,6.218L-125.878,6.218C-134.054,28.841 -140.715,47.288 -140.73,47.329L-140.74,47.36C-140.829,47.677 -140.881,48.026 -140.881,48.443C-140.881,48.693 -140.866,48.98 -140.792,49.246C-140.465,50.922 -139.012,52.172 -137.226,52.214L-114.118,52.214L-114.118,52.141L-92.782,52.141C-89.715,52.141 -87.09,50.182 -86.085,47.459L-71.529,7.25C-69.899,3.187 -66.004,0.24 -61.421,-0.011C-46.141,-0.011 -18.103,-0.011 -6.323,0.011C-4.635,0.323 -3.328,1.85 -3.328,3.656C-3.328,3.771 -3.328,3.875 -3.38,3.968C-4.344,6.734 -5.229,9.208 -5.957,11.233L-5.875,11.233C-11.728,27.362 -18.003,44.731 -18.8,46.938C-18.888,47.11 -18.888,47.209 -18.941,47.329L-18.941,47.36C-19.055,47.677 -19.107,48.026 -19.107,48.443C-19.107,50.432 -17.493,52.078 -15.509,52.141L-1.823,52.141L-1.823,52.214L20.43,52.214C20.863,52.245 21.316,52.192 21.716,52.141L28.679,52.141C31.757,52.141 34.366,50.182 35.372,47.459C35.372,47.459 35.428,47.423 35.428,47.407C35.627,46.808 37.293,42.235 39.443,36.247C39.845,35.34 40.173,34.372 40.511,33.387C44.511,22.477 60.186,-20.487 69.737,-47.443C69.737,-47.443 69.737,-47.495 69.722,-47.526C70.576,-50.088 71.06,-52.833 71.06,-55.692" style="fill:white;fill-rule:nonzero;"/>
                </g>
                <g transform="matrix(1,0,0,1,-259.335,75.761)">
                    <path d="M0.385,-28.591L-48.667,-28.591C-51.844,-28.706 -54.463,-30.966 -55.182,-33.945C-55.328,-34.512 -55.375,-34.731 -55.375,-35.465L-55.375,-35.934C-55.141,-41.59 -50.876,-46.173 -45.402,-46.944C-45.272,-47.016 -45.084,-47.027 -44.917,-47.027L5.666,-47.027C8.681,-46.761 11.097,-44.569 11.816,-41.725C11.899,-41.355 12.003,-40.954 12.003,-40.215L12.003,-39.746C12.003,-39.746 12.003,-39.736 11.993,-39.715C11.967,-39.017 11.858,-38.308 11.733,-37.642C11.42,-36.809 11.066,-35.883 10.712,-34.883C8.78,-31.133 4.885,-28.591 0.385,-28.591ZM71.049,-55.646C71.049,-69.582 59.77,-80.846 45.834,-80.846L-46.959,-80.846L-47.006,-80.825L-50.834,-80.825C-74.508,-80.825 -98.621,-66.921 -108.343,-41.439C-109.823,-37.455 -111.864,-31.955 -114.306,-25.279C-114.755,-24.258 -115.161,-23.237 -115.535,-22.217C-118.983,-12.624 -122.535,-2.822 -125.816,6.26L-125.878,6.26C-134.065,28.882 -140.726,47.328 -140.772,47.359L-140.772,47.401C-140.861,47.724 -140.923,48.078 -140.923,48.442C-140.923,48.724 -140.876,48.995 -140.825,49.265C-140.491,50.953 -139.033,52.214 -137.263,52.255L-114.114,52.255L-114.114,52.161L-92.809,52.161C-89.736,52.161 -87.101,50.214 -86.106,47.49L-71.54,7.285C-69.894,3.219 -66.019,0.26 -61.432,0.021L-6.333,0.021C-4.636,0.375 -3.38,1.916 -3.38,3.687C-3.38,3.801 -3.38,3.906 -3.406,4.01C-4.38,6.76 -5.265,9.243 -6,11.248L-5.886,11.248C-11.739,27.393 -18.004,44.782 -18.827,46.99C-18.884,47.12 -18.936,47.239 -18.967,47.359L-18.967,47.401C-19.066,47.724 -19.154,48.078 -19.154,48.442C-19.154,50.484 -17.514,52.109 -15.504,52.161L-1.87,52.161L-1.87,52.255L20.42,52.255C20.831,52.255 21.274,52.244 21.701,52.161L28.653,52.161C31.731,52.161 34.355,50.214 35.361,47.49C35.376,47.474 35.376,47.458 35.376,47.422C35.605,46.839 37.251,42.256 39.433,36.277C39.808,35.382 40.162,34.408 40.464,33.413C44.48,22.529 60.192,-20.436 69.695,-47.396C69.711,-47.444 69.711,-47.475 69.695,-47.516C70.57,-50.058 71.049,-52.797 71.049,-55.646" style="fill:white;fill-rule:nonzero;"/>
                </g>
                <g transform="matrix(1,0,0,1,462.335,263.293)">
                    <path d="M0,-51.733L0,-51.212C-0.266,-45.026 -5.369,-40.109 -11.629,-40.109L-12.046,-40.109C-12.244,-40.068 -60.562,-40.068 -60.702,-40.109C-63.89,-40.245 -66.509,-42.485 -67.212,-45.442C-67.326,-46.026 -67.41,-46.229 -67.41,-46.964L-67.41,-47.432C-67.16,-53.072 -62.895,-57.691 -57.452,-58.457C-57.104,-58.556 -56.718,-58.598 -56.234,-58.598L-6.994,-58.598C-3.692,-58.598 -0.938,-56.317 -0.198,-53.244C-0.125,-52.869 0,-52.473 0,-51.733ZM36.913,-92.271L-101.328,-92.271C-104.364,-92.271 -107.062,-90.417 -108.067,-87.741C-108.218,-87.324 -152.724,35.736 -152.761,35.862L-152.761,35.893C-152.86,36.21 -152.927,36.559 -152.927,36.965C-152.927,38.965 -151.303,40.611 -149.297,40.673L-104.838,40.673C-101.76,40.673 -99.135,38.721 -98.126,35.992L-83.575,-4.217C-81.867,-8.498 -77.68,-11.524 -72.774,-11.524L-72.774,-11.546L-19.107,-11.546C-17.061,-11.546 -15.389,-9.853 -15.389,-7.811C-15.389,-7.415 -15.441,-7.046 -15.562,-6.676C-21.946,10.942 -29.909,32.997 -30.83,35.476C-30.888,35.622 -30.971,35.736 -30.971,35.862L-30.971,35.893C-31.07,36.21 -31.138,36.559 -31.138,36.965C-31.138,38.965 -29.513,40.611 -27.481,40.673L16.618,40.673C19.711,40.673 22.325,38.721 23.31,35.992C23.357,35.992 23.383,35.976 23.383,35.945C23.945,34.413 33.08,9.208 36.736,-0.781C36.736,-0.801 36.694,-0.822 36.694,-0.822C37.344,-2.52 37.73,-4.301 37.73,-6.191C37.73,-14.42 31.075,-21.081 22.856,-21.081C22.789,-21.081 22.763,-21.049 22.706,-21.049C48.875,-28.861 56.905,-45.38 59.937,-61.91C60.004,-62.223 60.494,-65.014 60.494,-66.003C60.494,-66.357 60.525,-66.722 60.525,-67.112C60.525,-80.492 50.099,-91.458 36.913,-92.271" style="fill:white;fill-rule:nonzero;"/>
                </g>
                <g transform="matrix(-1,0,0,1,3754.84,-5561.15)">
                    <rect x="2959.22" y="5555.84" width="18.028" height="309.281" style="fill:white;"/>
                </g>
            </g>
        </g>
    </g>
    <defs>
        <linearGradient id="_Linear2" x1="0" y1="0" x2="1" y2="0" gradientUnits="userSpaceOnUse" gradientTransform="matrix(-1,0,-0,1,0.999733,0)"><stop offset="0" style="stop-color:rgb(229,81,81);stop-opacity:1"/><stop offset="1" style="stop-color:rgb(198,40,40);stop-opacity:1"/></linearGradient>
    </defs>
</svg>
