<?xml version="1.0" encoding="UTF-8" standalone="no"?>
<!DOCTYPE svg PUBLIC "-//W3C//DTD SVG 1.1//EN" "http://www.w3.org/Graphics/SVG/1.1/DTD/svg11.dtd">
<svg width="100%" height="100%" viewBox="0 0 88 88" version="1.1" xmlns="http://www.w3.org/2000/svg" xmlns:xlink="http://www.w3.org/1999/xlink" xml:space="preserve" xmlns:serif="http://www.serif.com/" style="fill-rule:evenodd;clip-rule:evenodd;stroke-linejoin:round;stroke-miterlimit:2;">
    <g transform="matrix(1,0,0,1,-1867.93,-347.721)">
        <g id="Artboard14" transform="matrix(0.902758,0,0,0.864343,172.958,41.8595)">
            <rect x="1877.55" y="353.866" width="97.479" height="101.811" style="fill:none;"/>
            <clipPath id="_clip1">
                <rect x="1877.55" y="353.866" width="97.479" height="101.811"/>
            </clipPath>
            <g clip-path="url(#_clip1)">
                <g transform="matrix(1.10772,0,0,1.15695,-189.571,-189.918)">
                    <g transform="matrix(1,0,0,1,916.732,-1324.36)">
                        <g opacity="0.3">
                            <g transform="matrix(1,0,0,1,993.378,1794.38)">
                                <path d="M0,86.375C-23.852,86.375 -43.188,67.039 -43.188,43.188L-43.188,43.187C-43.188,19.336 -23.852,0 0,0C23.852,0 43.188,19.336 43.188,43.187L43.188,43.188C43.188,67.039 23.852,86.375 0,86.375" style="fill:white;fill-rule:nonzero;"/>
                            </g>
                        </g>
                    </g>
                    <g transform="matrix(1,0,0,1,1899.46,518.834)">
                        <path d="M0,-26.876L1.544,-8.38C1.967,-3.658 5.907,-0.03 10.648,0.005C15.392,-0.022 19.337,-3.654 19.753,-8.38L21.297,-26.876L0,-26.876ZM10.648,4.34C3.651,4.305 -2.17,-1.047 -2.792,-8.016L-4.526,-28.827C-4.646,-30.018 -3.777,-31.081 -2.586,-31.201C-2.511,-31.208 -2.435,-31.212 -2.359,-31.212L23.655,-31.212C24.852,-31.216 25.826,-30.249 25.831,-29.051C25.831,-28.988 25.828,-28.925 25.823,-28.862L24.089,-8.051C23.484,-1.068 17.657,4.304 10.648,4.34" style="fill:white;fill-rule:nonzero;"/>
                    </g>
                    <g transform="matrix(1,0,0,1,1924.5,513.238)">
                        <path d="M0,-13.952L-0.954,-2.419C-1.013,-1.763 -1.115,-1.111 -1.257,-0.468C3.57,-1.961 6.859,-6.428 6.85,-11.481L6.85,-13.952L0,-13.952ZM-4.63,4.336C-5.828,4.336 -6.799,3.366 -6.799,2.168C-6.799,1.784 -6.697,1.407 -6.503,1.075C-5.812,-0.103 -5.397,-1.422 -5.289,-2.783L-4.162,-16.302C-4.063,-17.426 -3.122,-18.287 -1.994,-18.288L9.018,-18.288C10.215,-18.288 11.186,-17.317 11.186,-16.12L11.186,-11.481C11.176,-2.75 4.101,4.326 -4.63,4.336" style="fill:white;fill-rule:nonzero;"/>
                    </g>
                    <g transform="matrix(1,0,0,1,1888.86,513.282)">
                        <path d="M0,-13.996L0,-11.525C-0.008,-6.472 3.28,-2.005 8.108,-0.512C7.961,-1.155 7.859,-1.807 7.804,-2.463L6.85,-13.996L0,-13.996ZM11.481,4.292C2.75,4.282 -4.326,-2.794 -4.336,-11.525L-4.336,-16.12C-4.336,-17.318 -3.365,-18.288 -2.168,-18.288L8.845,-18.288C9.973,-18.288 10.914,-17.426 11.012,-16.303L12.14,-2.827C12.255,-1.466 12.672,-0.148 13.362,1.031C13.966,2.065 13.617,3.393 12.583,3.996C12.251,4.19 11.873,4.292 11.489,4.292L11.481,4.292Z" style="fill:white;fill-rule:nonzero;"/>
                    </g>
                    <g transform="matrix(1,0,0,1,1923.12,534.447)">
                        <path d="M0,4.336L-26.014,4.336C-27.211,4.336 -28.182,3.365 -28.182,2.168C-28.182,0.971 -27.211,0 -26.014,0L0,0C1.197,0 2.168,0.971 2.168,2.168C2.168,3.365 1.197,4.336 0,4.336" style="fill:white;fill-rule:nonzero;"/>
                    </g>
                    <g transform="matrix(1,0,0,1,1918.56,518.407)">
                        <path d="M0,20.376C-0.62,20.375 -1.209,20.11 -1.621,19.648C-5.895,14.777 -7.609,8.171 -6.243,1.837C-5.931,0.681 -4.741,-0.003 -3.585,0.309C-2.51,0.599 -1.83,1.657 -2.012,2.756C-3.087,7.741 -1.739,12.942 1.622,16.777C2.417,17.666 2.341,19.031 1.452,19.826C1.053,20.183 0.535,20.379 0,20.376" style="fill:white;fill-rule:nonzero;"/>
                    </g>
                    <g transform="matrix(1,0,0,1,1901.67,518.328)">
                        <path d="M0,20.455C-1.192,20.462 -2.165,19.501 -2.171,18.308C-2.174,17.773 -1.978,17.255 -1.622,16.856C1.739,13.021 3.087,7.82 2.012,2.835C1.758,1.659 2.505,0.501 3.681,0.247C4.857,-0.007 6.016,0.74 6.269,1.916C7.638,8.248 5.927,14.855 1.656,19.727C1.233,20.195 0.631,20.46 0,20.455" style="fill:white;fill-rule:nonzero;"/>
                    </g>
                </g>
            </g>
        </g>
    </g>
</svg>
