<?xml version="1.0" encoding="UTF-8" standalone="no"?>
<!DOCTYPE svg PUBLIC "-//W3C//DTD SVG 1.1//EN" "http://www.w3.org/Graphics/SVG/1.1/DTD/svg11.dtd">
<svg width="100%" height="100%" viewBox="0 0 50 50" version="1.1" xmlns="http://www.w3.org/2000/svg" xmlns:xlink="http://www.w3.org/1999/xlink" xml:space="preserve" xmlns:serif="http://www.serif.com/" style="fill-rule:evenodd;clip-rule:evenodd;stroke-linejoin:round;stroke-miterlimit:2;">
    <g transform="matrix(1,0,0,1,-2060.2,-405.107)">
        <g id="Artboard16" transform="matrix(0.654414,0,0,0.692383,720.348,131.857)">
            <rect x="2047.41" y="394.653" width="76.404" height="72.214" style="fill:none;"/>
            <g transform="matrix(1.52809,0,0,1.44429,8541.14,-165.451)">
                <g transform="matrix(1,0,0,1,-4211.04,398.864)">
                    <path d="M0,3.984L-35.056,3.984C-36.156,3.984 -37.048,3.092 -37.048,1.992C-37.048,0.892 -36.156,0 -35.056,0L0,0C1.1,0 1.992,0.892 1.992,1.992C1.992,3.092 1.1,3.984 0,3.984" style="fill:rgb(170,170,170);fill-rule:nonzero;"/>
                </g>
                <g transform="matrix(1,0,0,1,-4236.54,389.108)">
                    <path d="M0,23.301C-0.529,23.303 -1.036,23.093 -1.41,22.719L-10.971,13.159C-11.743,12.377 -11.743,11.12 -10.971,10.338L-1.41,0.777C-0.631,-0.002 0.631,-0.002 1.41,0.777C2.189,1.556 2.189,2.819 1.41,3.598L-6.772,11.748L1.41,19.899C2.182,20.681 2.182,21.938 1.41,22.719C1.036,23.093 0.529,23.303 0,23.301" style="fill:rgb(170,170,170);fill-rule:nonzero;"/>
                </g>
                <g transform="matrix(1,0,0,1,-4203.07,422.767)">
                    <path d="M0,3.984L-35.056,3.984C-36.156,3.984 -37.048,3.092 -37.048,1.992C-37.048,0.892 -36.156,0 -35.056,0L0,0C1.1,0 1.992,0.892 1.992,1.992C1.992,3.092 1.1,3.984 0,3.984" style="fill:rgb(170,170,170);fill-rule:nonzero;"/>
                </g>
                <g transform="matrix(1,0,0,1,-4212.63,413.01)">
                    <path d="M0,23.301C-0.529,23.303 -1.036,23.093 -1.41,22.719C-2.182,21.938 -2.182,20.681 -1.41,19.899L6.772,11.748L-1.41,3.598C-2.189,2.819 -2.189,1.556 -1.41,0.777C-0.631,-0.002 0.631,-0.002 1.41,0.777L10.971,10.338C11.743,11.12 11.743,12.377 10.971,13.159L1.41,22.719C1.036,23.093 0.529,23.303 0,23.301" style="fill:rgb(170,170,170);fill-rule:nonzero;"/>
                </g>
            </g>
        </g>
    </g>
</svg>
