<?xml version="1.0" encoding="UTF-8" standalone="no"?>
<!DOCTYPE svg PUBLIC "-//W3C//DTD SVG 1.1//EN" "http://www.w3.org/Graphics/SVG/1.1/DTD/svg11.dtd">
<svg width="100%" height="100%" viewBox="0 0 1080 113" version="1.1" xmlns="http://www.w3.org/2000/svg" xmlns:xlink="http://www.w3.org/1999/xlink" xml:space="preserve" xmlns:serif="http://www.serif.com/" style="fill-rule:evenodd;clip-rule:evenodd;stroke-linejoin:round;stroke-miterlimit:2;">
    <g transform="matrix(1,0,0,1,-1078,-3257)">
        <g id="Artboard12" transform="matrix(1,0,0,1,-0.0143393,-0.746038)">
            <rect x="1078.01" y="3257.75" width="1080" height="113" style="fill:none;"/>
            <clipPath id="_clip1">
                <rect x="1078.01" y="3257.75" width="1080" height="113"/>
            </clipPath>
            <g clip-path="url(#_clip1)">
                <g transform="matrix(1082,-1.27007e-14,1.27007e-14,-1185.71,1078.03,3314.99)">
                    <rect x="0" y="-0.052" width="0.998" height="0.104" style="fill:url(#_Linear2);"/>
                </g>
                <g transform="matrix(1,0,0,1,1078.03,1451.49)">
                    <path d="M373.535,1869.64L376.895,1855.05L381.523,1855.05L375.762,1876.19L371.856,1876.19L367.324,1861.67L362.871,1876.19L358.965,1876.19L353.184,1855.05L357.813,1855.05L361.231,1869.49L365.566,1855.05L369.141,1855.05L373.535,1869.64Z" style="fill:white;fill-rule:nonzero;"/>
                    <path d="M403.394,1869.64L406.753,1855.05L411.382,1855.05L405.62,1876.19L401.714,1876.19L397.183,1861.67L392.73,1876.19L388.824,1876.19L383.042,1855.05L387.671,1855.05L391.089,1869.49L395.425,1855.05L398.999,1855.05L403.394,1869.64Z" style="fill:white;fill-rule:nonzero;"/>
                    <path d="M433.253,1869.64L436.612,1855.05L441.241,1855.05L435.479,1876.19L431.573,1876.19L427.042,1861.67L422.589,1876.19L418.682,1876.19L412.901,1855.05L417.53,1855.05L420.948,1869.49L425.284,1855.05L428.858,1855.05L433.253,1869.64Z" style="fill:white;fill-rule:nonzero;"/>
                    <path d="M445.084,1871.19C445.969,1871.19 446.653,1871.44 447.135,1871.94C447.617,1872.44 447.857,1873.07 447.857,1873.82C447.857,1874.56 447.617,1875.18 447.135,1875.67C446.653,1876.16 445.969,1876.4 445.084,1876.4C444.238,1876.4 443.567,1876.16 443.072,1875.68C442.577,1875.2 442.33,1874.58 442.33,1873.82C442.33,1873.07 442.571,1872.44 443.053,1871.94C443.534,1871.44 444.212,1871.19 445.084,1871.19Z" style="fill:white;fill-rule:nonzero;"/>
                    <path d="M466.056,1876.19C465.848,1875.78 465.665,1875.12 465.509,1874.21C463.999,1875.79 462.15,1876.58 459.962,1876.58C457.84,1876.58 456.108,1875.97 454.767,1874.76C453.426,1873.55 452.755,1872.05 452.755,1870.27C452.755,1868.02 453.592,1866.29 455.265,1865.08C456.938,1863.88 459.331,1863.28 462.443,1863.28L465.353,1863.28L465.353,1861.89C465.353,1860.8 465.047,1859.92 464.435,1859.26C463.823,1858.6 462.892,1858.28 461.642,1858.28C460.561,1858.28 459.676,1858.55 458.986,1859.09C458.296,1859.63 457.95,1860.31 457.95,1861.15L453.204,1861.15C453.204,1859.99 453.588,1858.9 454.357,1857.89C455.125,1856.88 456.17,1856.09 457.491,1855.52C458.813,1854.95 460.288,1854.66 461.915,1854.66C464.389,1854.66 466.362,1855.28 467.833,1856.53C469.305,1857.77 470.06,1859.52 470.099,1861.77L470.099,1871.3C470.099,1873.2 470.366,1874.72 470.9,1875.85L470.9,1876.19L466.056,1876.19ZM460.841,1872.77C461.779,1872.77 462.661,1872.54 463.488,1872.08C464.314,1871.63 464.936,1871.02 465.353,1870.25L465.353,1866.26L462.794,1866.26C461.036,1866.26 459.715,1866.57 458.829,1867.18C457.944,1867.79 457.501,1868.66 457.501,1869.78C457.501,1870.69 457.804,1871.42 458.409,1871.96C459.015,1872.5 459.825,1872.77 460.841,1872.77Z" style="fill:white;fill-rule:nonzero;"/>
                    <path d="M487.047,1870.44C487.047,1869.6 486.699,1868.95 486.003,1868.51C485.306,1868.07 484.15,1867.68 482.536,1867.34C480.921,1867 479.573,1866.57 478.493,1866.05C476.123,1864.9 474.938,1863.24 474.938,1861.07C474.938,1859.25 475.706,1857.72 477.243,1856.5C478.779,1855.27 480.732,1854.66 483.102,1854.66C485.628,1854.66 487.669,1855.29 489.225,1856.54C490.781,1857.79 491.559,1859.41 491.559,1861.4L486.813,1861.4C486.813,1860.49 486.475,1859.73 485.797,1859.12C485.12,1858.52 484.222,1858.22 483.102,1858.22C482.06,1858.22 481.211,1858.46 480.553,1858.94C479.896,1859.42 479.567,1860.07 479.567,1860.87C479.567,1861.6 479.873,1862.17 480.485,1862.57C481.097,1862.98 482.334,1863.38 484.196,1863.79C486.058,1864.2 487.519,1864.69 488.581,1865.26C489.642,1865.82 490.43,1866.51 490.944,1867.3C491.458,1868.09 491.715,1869.06 491.715,1870.19C491.715,1872.09 490.928,1873.63 489.352,1874.81C487.777,1875.99 485.713,1876.58 483.161,1876.58C481.429,1876.58 479.886,1876.26 478.532,1875.64C477.178,1875.01 476.123,1874.15 475.368,1873.06C474.613,1871.97 474.235,1870.79 474.235,1869.53L478.844,1869.53C478.909,1870.64 479.333,1871.51 480.114,1872.11C480.895,1872.72 481.93,1873.02 483.219,1873.02C484.469,1873.02 485.42,1872.78 486.071,1872.31C486.722,1871.83 487.047,1871.21 487.047,1870.44Z" style="fill:white;fill-rule:nonzero;"/>
                    <path d="M507.824,1870.44C507.824,1869.6 507.476,1868.95 506.779,1868.51C506.083,1868.07 504.927,1867.68 503.312,1867.34C501.698,1867 500.35,1866.57 499.269,1866.05C496.9,1864.9 495.715,1863.24 495.715,1861.07C495.715,1859.25 496.483,1857.72 498.019,1856.5C499.556,1855.27 501.509,1854.66 503.879,1854.66C506.405,1854.66 508.446,1855.29 510.002,1856.54C511.558,1857.79 512.336,1859.41 512.336,1861.4L507.59,1861.4C507.59,1860.49 507.251,1859.73 506.574,1859.12C505.897,1858.52 504.999,1858.22 503.879,1858.22C502.837,1858.22 501.988,1858.46 501.33,1858.94C500.672,1859.42 500.344,1860.07 500.344,1860.87C500.344,1861.6 500.65,1862.17 501.262,1862.57C501.874,1862.98 503.111,1863.38 504.973,1863.79C506.835,1864.2 508.296,1864.69 509.357,1865.26C510.419,1865.82 511.206,1866.51 511.721,1867.3C512.235,1868.09 512.492,1869.06 512.492,1870.19C512.492,1872.09 511.704,1873.63 510.129,1874.81C508.553,1875.99 506.489,1876.58 503.937,1876.58C502.206,1876.58 500.663,1876.26 499.308,1875.64C497.954,1875.01 496.9,1874.15 496.144,1873.06C495.389,1871.97 495.012,1870.79 495.012,1869.53L499.621,1869.53C499.686,1870.64 500.109,1871.51 500.891,1872.11C501.672,1872.72 502.707,1873.02 503.996,1873.02C505.246,1873.02 506.197,1872.78 506.848,1872.31C507.499,1871.83 507.824,1871.21 507.824,1870.44Z" style="fill:white;fill-rule:nonzero;"/>
                    <path d="M521.804,1876.19L517.058,1876.19L517.058,1855.05L521.804,1855.05L521.804,1876.19ZM516.765,1849.56C516.765,1848.84 516.996,1848.23 517.458,1847.75C517.92,1847.27 518.581,1847.03 519.441,1847.03C520.3,1847.03 520.964,1847.27 521.433,1847.75C521.902,1848.23 522.136,1848.84 522.136,1849.56C522.136,1850.28 521.902,1850.88 521.433,1851.35C520.964,1851.83 520.3,1852.06 519.441,1852.06C518.581,1852.06 517.92,1851.83 517.458,1851.35C516.996,1850.88 516.765,1850.28 516.765,1849.56Z" style="fill:white;fill-rule:nonzero;"/>
                    <path d="M538.948,1870.44C538.948,1869.6 538.599,1868.95 537.903,1868.51C537.206,1868.07 536.051,1867.68 534.436,1867.34C532.821,1867 531.474,1866.57 530.393,1866.05C528.023,1864.9 526.838,1863.24 526.838,1861.07C526.838,1859.25 527.607,1857.72 529.143,1856.5C530.68,1855.27 532.633,1854.66 535.002,1854.66C537.529,1854.66 539.57,1855.29 541.126,1856.54C542.681,1857.79 543.459,1859.41 543.459,1861.4L538.713,1861.4C538.713,1860.49 538.375,1859.73 537.698,1859.12C537.021,1858.52 536.122,1858.22 535.002,1858.22C533.961,1858.22 533.111,1858.46 532.454,1858.94C531.796,1859.42 531.467,1860.07 531.467,1860.87C531.467,1861.6 531.773,1862.17 532.385,1862.57C532.997,1862.98 534.234,1863.38 536.096,1863.79C537.958,1864.2 539.42,1864.69 540.481,1865.26C541.542,1865.82 542.33,1866.51 542.844,1867.3C543.359,1868.09 543.616,1869.06 543.616,1870.19C543.616,1872.09 542.828,1873.63 541.252,1874.81C539.677,1875.99 537.613,1876.58 535.061,1876.58C533.329,1876.58 531.786,1876.26 530.432,1875.64C529.078,1875.01 528.023,1874.15 527.268,1873.06C526.513,1871.97 526.135,1870.79 526.135,1869.53L530.745,1869.53C530.81,1870.64 531.233,1871.51 532.014,1872.11C532.795,1872.72 533.831,1873.02 535.12,1873.02C536.37,1873.02 537.32,1872.78 537.971,1872.31C538.622,1871.83 538.948,1871.21 538.948,1870.44Z" style="fill:white;fill-rule:nonzero;"/>
                    <path d="M553.826,1849.92L553.826,1855.05L557.556,1855.05L557.556,1858.57L553.826,1858.57L553.826,1870.37C553.826,1871.17 553.986,1871.76 554.305,1872.11C554.624,1872.47 555.193,1872.65 556.014,1872.65C556.56,1872.65 557.114,1872.59 557.674,1872.45L557.674,1876.13C556.593,1876.43 555.551,1876.58 554.549,1876.58C550.903,1876.58 549.08,1874.56 549.08,1870.54L549.08,1858.57L545.603,1858.57L545.603,1855.05L549.08,1855.05L549.08,1849.92L553.826,1849.92Z" style="fill:white;fill-rule:nonzero;"/>
                    <path d="M570.24,1872.79C571.425,1872.79 572.408,1872.44 573.19,1871.75C573.971,1871.06 574.388,1870.21 574.44,1869.19L578.912,1869.19C578.86,1870.51 578.45,1871.74 577.682,1872.88C576.914,1874.01 575.872,1874.92 574.557,1875.58C573.242,1876.24 571.822,1876.58 570.299,1876.58C567.343,1876.58 564.999,1875.62 563.268,1873.7C561.536,1871.79 560.67,1869.15 560.67,1865.78L560.67,1865.29C560.67,1862.07 561.529,1859.5 563.248,1857.56C564.967,1855.63 567.311,1854.66 570.279,1854.66C572.792,1854.66 574.84,1855.39 576.422,1856.86C578.004,1858.32 578.834,1860.25 578.912,1862.63L574.44,1862.63C574.388,1861.42 573.974,1860.42 573.199,1859.64C572.425,1858.86 571.438,1858.47 570.24,1858.47C568.704,1858.47 567.519,1859.03 566.686,1860.14C565.852,1861.25 565.429,1862.94 565.416,1865.21L565.416,1865.97C565.416,1868.26 565.83,1869.97 566.656,1871.1C567.483,1872.22 568.678,1872.79 570.24,1872.79Z" style="fill:white;fill-rule:nonzero;"/>
                    <path d="M594.986,1876.19C594.777,1875.78 594.595,1875.12 594.439,1874.21C592.928,1875.79 591.079,1876.58 588.892,1876.58C586.77,1876.58 585.038,1875.97 583.697,1874.76C582.355,1873.55 581.685,1872.05 581.685,1870.27C581.685,1868.02 582.522,1866.29 584.195,1865.08C585.868,1863.88 588.26,1863.28 591.372,1863.28L594.283,1863.28L594.283,1861.89C594.283,1860.8 593.977,1859.92 593.365,1859.26C592.753,1858.6 591.822,1858.28 590.572,1858.28C589.491,1858.28 588.605,1858.55 587.915,1859.09C587.225,1859.63 586.88,1860.31 586.88,1861.15L582.134,1861.15C582.134,1859.99 582.518,1858.9 583.286,1857.89C584.055,1856.88 585.1,1856.09 586.421,1855.52C587.743,1854.95 589.217,1854.66 590.845,1854.66C593.319,1854.66 595.292,1855.28 596.763,1856.53C598.234,1857.77 598.99,1859.52 599.029,1861.77L599.029,1871.3C599.029,1873.2 599.296,1874.72 599.829,1875.85L599.829,1876.19L594.986,1876.19ZM589.771,1872.77C590.708,1872.77 591.591,1872.54 592.417,1872.08C593.244,1871.63 593.866,1871.02 594.283,1870.25L594.283,1866.26L591.724,1866.26C589.966,1866.26 588.645,1866.57 587.759,1867.18C586.874,1867.79 586.431,1868.66 586.431,1869.78C586.431,1870.69 586.734,1871.42 587.339,1871.96C587.945,1872.5 588.755,1872.77 589.771,1872.77Z" style="fill:white;fill-rule:nonzero;"/>
                    <path d="M615.109,1859.39C614.484,1859.28 613.84,1859.23 613.176,1859.23C611.001,1859.23 609.536,1860.07 608.781,1861.73L608.781,1876.19L604.035,1876.19L604.035,1855.05L608.566,1855.05L608.684,1857.42C609.829,1855.58 611.418,1854.66 613.449,1854.66C614.126,1854.66 614.686,1854.75 615.129,1854.94L615.109,1859.39Z" style="fill:white;fill-rule:nonzero;"/>
                    <path d="M616.893,1865.46C616.893,1862.21 617.648,1859.59 619.159,1857.62C620.669,1855.65 622.694,1854.66 625.233,1854.66C627.473,1854.66 629.282,1855.44 630.663,1857.01L630.663,1846.19L635.409,1846.19L635.409,1876.19L631.112,1876.19L630.877,1874C629.458,1875.72 627.564,1876.58 625.194,1876.58C622.72,1876.58 620.718,1875.58 619.188,1873.59C617.658,1871.6 616.893,1868.89 616.893,1865.46ZM621.639,1865.87C621.639,1868.02 622.053,1869.7 622.879,1870.9C623.706,1872.11 624.881,1872.71 626.405,1872.71C628.345,1872.71 629.764,1871.84 630.663,1870.11L630.663,1861.09C629.79,1859.39 628.384,1858.55 626.444,1858.55C624.907,1858.55 623.723,1859.16 622.889,1860.38C622.056,1861.59 621.639,1863.42 621.639,1865.87Z" style="fill:white;fill-rule:nonzero;"/>
                    <path d="M643.364,1871.19C644.25,1871.19 644.933,1871.44 645.415,1871.94C645.897,1872.44 646.138,1873.07 646.138,1873.82C646.138,1874.56 645.897,1875.18 645.415,1875.67C644.933,1876.16 644.25,1876.4 643.364,1876.4C642.518,1876.4 641.847,1876.16 641.353,1875.68C640.858,1875.2 640.61,1874.58 640.61,1873.82C640.61,1873.07 640.851,1872.44 641.333,1871.94C641.815,1871.44 642.492,1871.19 643.364,1871.19Z" style="fill:white;fill-rule:nonzero;"/>
                    <path d="M660.304,1872.79C661.489,1872.79 662.472,1872.44 663.254,1871.75C664.035,1871.06 664.452,1870.21 664.504,1869.19L668.976,1869.19C668.924,1870.51 668.514,1871.74 667.746,1872.88C666.978,1874.01 665.936,1874.92 664.621,1875.58C663.306,1876.24 661.886,1876.58 660.363,1876.58C657.407,1876.58 655.063,1875.62 653.332,1873.7C651.6,1871.79 650.734,1869.15 650.734,1865.78L650.734,1865.29C650.734,1862.07 651.593,1859.5 653.312,1857.56C655.031,1855.63 657.375,1854.66 660.343,1854.66C662.856,1854.66 664.904,1855.39 666.486,1856.86C668.068,1858.32 668.898,1860.25 668.976,1862.63L664.504,1862.63C664.452,1861.42 664.038,1860.42 663.263,1859.64C662.489,1858.86 661.502,1858.47 660.304,1858.47C658.768,1858.47 657.583,1859.03 656.75,1860.14C655.916,1861.25 655.493,1862.94 655.48,1865.21L655.48,1865.97C655.48,1868.26 655.894,1869.97 656.72,1871.1C657.547,1872.22 658.742,1872.79 660.304,1872.79Z" style="fill:white;fill-rule:nonzero;"/>
                    <path d="M671.536,1865.42C671.536,1863.35 671.946,1861.49 672.767,1859.83C673.587,1858.17 674.739,1856.89 676.224,1856C677.708,1855.11 679.414,1854.66 681.341,1854.66C684.192,1854.66 686.507,1855.58 688.284,1857.42C690.061,1859.25 691.022,1861.69 691.165,1864.72L691.185,1865.83C691.185,1867.92 690.784,1869.78 689.983,1871.42C689.183,1873.06 688.037,1874.33 686.546,1875.23C685.055,1876.13 683.333,1876.58 681.38,1876.58C678.398,1876.58 676.012,1875.58 674.222,1873.6C672.431,1871.61 671.536,1868.97 671.536,1865.66L671.536,1865.42ZM676.282,1865.83C676.282,1868.01 676.731,1869.71 677.63,1870.94C678.528,1872.17 679.778,1872.79 681.38,1872.79C682.981,1872.79 684.228,1872.16 685.12,1870.91C686.012,1869.66 686.458,1867.83 686.458,1865.42C686.458,1863.29 685.999,1861.6 685.081,1860.35C684.163,1859.1 682.916,1858.47 681.341,1858.47C679.791,1858.47 678.561,1859.09 677.649,1860.32C676.738,1861.55 676.282,1863.39 676.282,1865.83Z" style="fill:white;fill-rule:nonzero;"/>
                    <path d="M699.526,1855.05L699.662,1857.26C701.147,1855.53 703.178,1854.66 705.756,1854.66C708.582,1854.66 710.515,1855.74 711.557,1857.9C713.093,1855.74 715.255,1854.66 718.041,1854.66C720.372,1854.66 722.107,1855.31 723.246,1856.6C724.386,1857.88 724.968,1859.79 724.994,1862.3L724.994,1876.19L720.248,1876.19L720.248,1862.44C720.248,1861.09 719.955,1860.11 719.369,1859.49C718.783,1858.86 717.813,1858.55 716.459,1858.55C715.378,1858.55 714.496,1858.84 713.813,1859.42C713.129,1860 712.651,1860.76 712.377,1861.69L712.397,1876.19L707.651,1876.19L707.651,1862.28C707.586,1859.79 706.316,1858.55 703.842,1858.55C701.941,1858.55 700.593,1859.32 699.799,1860.87L699.799,1876.19L695.053,1876.19L695.053,1855.05L699.526,1855.05Z" style="fill:white;fill-rule:nonzero;"/>
                </g>
            </g>
        </g>
    </g>
    <defs>
        <linearGradient id="_Linear2" x1="0" y1="0" x2="1" y2="0" gradientUnits="userSpaceOnUse" gradientTransform="matrix(1,0,0,-1,0,2.22045e-16)"><stop offset="0" style="stop-color:rgb(229,81,81);stop-opacity:1"/><stop offset="1" style="stop-color:rgb(198,40,40);stop-opacity:1"/></linearGradient>
    </defs>
</svg>
