<?xml version="1.0" encoding="UTF-8" standalone="no"?>
<!DOCTYPE svg PUBLIC "-//W3C//DTD SVG 1.1//EN" "http://www.w3.org/Graphics/SVG/1.1/DTD/svg11.dtd">
<svg width="100%" height="100%" viewBox="0 0 50 50" version="1.1" xmlns="http://www.w3.org/2000/svg" xmlns:xlink="http://www.w3.org/1999/xlink" xml:space="preserve" xmlns:serif="http://www.serif.com/" style="fill-rule:evenodd;clip-rule:evenodd;stroke-linejoin:round;stroke-miterlimit:2;">
    <g transform="matrix(1,0,0,1,-2173.77,-402.478)">
        <g id="Artboard16" transform="matrix(0.654414,0,0,0.692383,833.919,129.228)">
            <rect x="2047.41" y="394.653" width="76.404" height="72.214" style="fill:none;"/>
            <g transform="matrix(1.52809,0,0,1.44429,1356.08,-1344.16)">
                <g transform="matrix(1,0,0,1,456.806,1207.02)">
                    <path d="M0,24.24C-1.054,24.229 -1.9,23.366 -1.889,22.312C-1.884,21.823 -1.692,21.354 -1.351,21.003L19.261,0.391C19.611,0.031 20.088,-0.177 20.589,-0.189C21.096,-0.189 21.581,0.011 21.941,0.368L42.553,20.98C43.299,21.727 43.299,22.936 42.553,23.683C41.806,24.429 40.596,24.429 39.85,23.683L20.589,4.391L1.351,23.698C0.99,24.05 0.504,24.245 0,24.24" style="fill:white;fill-rule:nonzero;"/>
                </g>
                <g transform="matrix(1,0,0,1,486.617,1222.16)">
                    <path d="M0,28.849L-18.398,28.849C-22.809,28.832 -26.376,25.252 -26.376,20.841L-26.376,1.908C-26.376,0.854 -25.521,0 -24.467,0C-23.413,0 -22.559,0.854 -22.559,1.908L-22.559,20.841C-22.559,23.155 -20.682,25.032 -18.368,25.032L0.031,25.032C2.321,24.999 4.161,23.132 4.161,20.841L4.161,1.908C4.161,0.854 5.015,0 6.069,0C7.123,0 7.978,0.854 7.978,1.908L7.978,20.841C7.978,25.252 4.411,28.832 0,28.849" style="fill:white;fill-rule:nonzero;"/>
                </g>
                <g transform="matrix(1,0,0,1,473.983,1233.57)">
                    <path d="M0,6.752L6.871,6.752L6.871,3.431C6.871,1.534 5.333,-0.004 3.435,-0.004C1.538,-0.004 0,1.534 0,3.431L0,6.752ZM8.795,10.569L-1.909,10.569C-2.958,10.573 -3.813,9.726 -3.817,8.676L-3.817,3.431C-3.817,-0.574 -0.57,-3.821 3.435,-3.821C7.441,-3.821 10.688,-0.574 10.688,3.431L10.688,8.661C10.692,9.71 9.844,10.565 8.795,10.569Z" style="fill:white;fill-rule:nonzero;"/>
                </g>
            </g>
        </g>
    </g>
</svg>
