<?xml version="1.0" encoding="UTF-8" standalone="no"?>
<!DOCTYPE svg PUBLIC "-//W3C//DTD SVG 1.1//EN" "http://www.w3.org/Graphics/SVG/1.1/DTD/svg11.dtd">
<svg width="100%" height="100%" viewBox="0 0 42 42" version="1.1" xmlns="http://www.w3.org/2000/svg" xmlns:xlink="http://www.w3.org/1999/xlink" xml:space="preserve" xmlns:serif="http://www.serif.com/" style="fill-rule:evenodd;clip-rule:evenodd;stroke-linejoin:round;stroke-miterlimit:2;">
    <g transform="matrix(1,0,0,1,-2111.64,-386.56)">
        <g id="Artboard18" transform="matrix(1.53933,0,0,1.07363,-1150.92,-30.6247)">
            <rect x="2119.48" y="388.575" width="27.285" height="39.12" style="fill:none;"/>
            <g transform="matrix(0.649635,0,0,0.931422,3249.72,2053.92)">
                <g transform="matrix(1,0,0,1,-1727.04,-1762.61)">
                    <path d="M0,-20.77L1.193,-6.477C1.52,-2.827 4.565,-0.023 8.229,0.003C11.895,-0.017 14.943,-2.824 15.265,-6.477L16.458,-20.77L0,-20.77ZM8.229,3.354C2.822,3.327 -1.677,-0.809 -2.158,-6.195L-3.498,-22.278C-3.59,-23.198 -2.919,-24.02 -1.999,-24.112C-1.94,-24.118 -1.881,-24.121 -1.823,-24.121L18.281,-24.121C19.206,-24.124 19.958,-23.376 19.962,-22.451C19.962,-22.402 19.96,-22.353 19.956,-22.305L18.616,-6.222C18.148,-0.826 13.645,3.326 8.229,3.354" style="fill:white;fill-rule:nonzero;"/>
                </g>
                <g transform="matrix(1,0,0,1,-1707.69,-1766.94)">
                    <path d="M0,-10.782L-0.737,-1.87C-0.783,-1.363 -0.861,-0.859 -0.972,-0.362C2.759,-1.515 5.3,-4.967 5.294,-8.872L5.294,-10.782L0,-10.782ZM-3.578,3.351C-4.504,3.351 -5.254,2.601 -5.254,1.676C-5.254,1.379 -5.175,1.087 -5.026,0.831C-4.492,-0.079 -4.171,-1.099 -4.088,-2.151L-3.217,-12.598C-3.14,-13.466 -2.413,-14.132 -1.541,-14.133L6.969,-14.133C7.894,-14.133 8.645,-13.383 8.645,-12.458C8.645,-12.446 8.645,-12.435 8.644,-12.424L8.644,-8.872C8.637,-2.125 3.169,3.343 -3.578,3.351" style="fill:white;fill-rule:nonzero;"/>
                </g>
                <g transform="matrix(1,0,0,1,-1735.23,-1766.9)">
                    <path d="M0,-10.816L0,-8.906C-0.007,-5.001 2.535,-1.549 6.266,-0.396C6.152,-0.892 6.074,-1.396 6.031,-1.904L5.294,-10.816L0,-10.816ZM8.872,3.317C2.125,3.309 -3.343,-2.159 -3.351,-8.906L-3.351,-12.458C-3.351,-13.383 -2.6,-14.133 -1.675,-14.133L6.835,-14.133C7.707,-14.133 8.434,-13.467 8.51,-12.598L9.382,-2.185C9.47,-1.133 9.793,-0.114 10.326,0.797C10.793,1.596 10.523,2.622 9.724,3.088C9.467,3.238 9.176,3.317 8.879,3.317L8.872,3.317Z" style="fill:white;fill-rule:nonzero;"/>
                </g>
                <g transform="matrix(1,0,0,1,-1708.76,-1750.55)">
                    <path d="M0,3.351L-20.103,3.351C-21.028,3.351 -21.778,2.601 -21.778,1.676C-21.778,0.751 -21.028,0 -20.103,0L0,0C0.925,0 1.675,0.751 1.675,1.676C1.675,2.601 0.925,3.351 0,3.351" style="fill:white;fill-rule:nonzero;"/>
                </g>
                <g transform="matrix(1,0,0,1,-1712.28,-1762.94)">
                    <path d="M0,15.747C-0.479,15.746 -0.935,15.542 -1.253,15.184C-4.556,11.42 -5.88,6.315 -4.825,1.42C-4.584,0.527 -3.664,-0.002 -2.771,0.239C-1.94,0.464 -1.414,1.281 -1.555,2.13C-2.385,5.983 -1.344,10.002 1.253,12.966C1.867,13.653 1.809,14.708 1.122,15.322C0.814,15.598 0.414,15.749 0,15.747" style="fill:white;fill-rule:nonzero;"/>
                </g>
                <g transform="matrix(1,0,0,1,-1725.33,-1763.01)">
                    <path d="M0,15.808C-0.922,15.813 -1.673,15.07 -1.678,14.149C-1.68,13.735 -1.529,13.335 -1.253,13.027C1.344,10.063 2.386,6.044 1.555,2.191C1.358,1.283 1.936,0.387 2.845,0.191C3.753,-0.005 4.649,0.573 4.845,1.481C5.902,6.375 4.58,11.48 1.28,15.245C0.953,15.607 0.487,15.811 0,15.808" style="fill:white;fill-rule:nonzero;"/>
                </g>
            </g>
        </g>
    </g>
</svg>
