<?xml version="1.0" encoding="UTF-8" standalone="no"?>
<!DOCTYPE svg PUBLIC "-//W3C//DTD SVG 1.1//EN" "http://www.w3.org/Graphics/SVG/1.1/DTD/svg11.dtd">
<svg width="100%" height="100%" viewBox="0 0 412 412" version="1.1" xmlns="http://www.w3.org/2000/svg" xmlns:xlink="http://www.w3.org/1999/xlink" xml:space="preserve" xmlns:serif="http://www.serif.com/" style="fill-rule:evenodd;clip-rule:evenodd;stroke-linejoin:round;stroke-miterlimit:2;">
    <g transform="matrix(1,0,0,1,-1595.59,-2666.56)">
        <g id="Artboard11" transform="matrix(0.997167,0,0,0.983012,4.49206,48.4812)">
            <rect x="1595.61" y="2663.32" width="413.17" height="419.12" style="fill:none;"/>
            <g transform="matrix(0.39395,0,0,0.399623,1574.69,2642.1)">
                <path d="M665,140L665,175L700,175L700,210L770,210L770,140L805,140L805,105L735,105L735,140L665,140Z" style="fill:url(#_Linear1);"/>
                <path d="M665,245L665,280L700,280L700,315L735,315L735,280L770,280L770,245L665,245Z" style="fill:url(#_Linear2);"/>
                <path d="M735,875L665,875L665,910L630,910L630,945L595.114,945L595.114,1015L630,1015L630,980L665,980L665,1015L630,1015L630,1085L700,1085L700,1050L735,1050L735,1015L700,1015L700,980L735,980L735,945L700,945L700,910L735,910L735,875Z" style="fill:url(#_Linear3);"/>
                <path d="M945,980L945,1050L980,1050L980,1015L1015,1015L1015,1085L1050,1085L1050,1050L1085,1050L1085,945L1050,945L1050,980L945,980Z" style="fill:url(#_Linear4);"/>
                <path d="M1015,875L1015,945L1050,945L1050,910L1085,910L1085,665L1050,665L1050,630L1085,630L1085,525.607L1050,525L1050,490L1085,490L1085,350L1050,350L1050,385L980,385L980,350L735,350L735,385L805,385L805,420L840,420L840,455L805,455L805,490L770,490L770,525L840,525L840,490L875.016,490L875.016,455L910,455L910,420L1050,420L1050,455L1015,455L1015,525L910,525L910,490L875.016,490L875,525L840,525L840,560L945,560L945,595L1015,595L1015,560L1050,560L1050,595L1015,595L1015,699.972L1050,699.972L1050,735L1015,735L1015,770L1050,770L1050,875L1015,875Z" style="fill:url(#_Linear5);"/>
                <path d="M630,770L630,735L770,735L770,700L805,700L805,735L840,735L840,770L875,770L875,700L840,700L840,666.479L980,665L980,700L945,700L945,735L910,735L910,770L980,770L980,805L945,805L945,840L1015,840L1015,875L945,875L945,910L980,910L980,945L910,945L910,980L875,980L875,945L840,945L840,1015L910,1015L910,1050L945,1050L945,1085L770,1085L770,1015L735,1015L735,980L805,980L805,945L735,945L735,910L770,910L770,875L735,875L735,805L770,805L770,770L700,770L700,805L665,805L665,770L630,770ZM805,805L805,910L910,910L910,805L805,805Z" style="fill:url(#_Linear6);"/>
                <rect x="210" y="350" width="35" height="35" style="fill:url(#_Linear7);"/>
                <rect x="175" y="385" width="35" height="35" style="fill:url(#_Linear8);"/>
                <rect x="140" y="525" width="35" height="35" style="fill:url(#_Linear9);"/>
                <g transform="matrix(1,0,0,1,-35,35)">
                    <rect x="140" y="525" width="35" height="35" style="fill:url(#_Linear10);"/>
                </g>
                <g transform="matrix(1,0,0,1,140,105)">
                    <rect x="140" y="525" width="35" height="35" style="fill:url(#_Linear11);"/>
                </g>
                <g transform="matrix(1,0,0,1,175,0)">
                    <rect x="140" y="525" width="35" height="35" style="fill:url(#_Linear12);"/>
                </g>
                <g transform="matrix(1,0,0,1,350,70)">
                    <rect x="140" y="525" width="35" height="35" style="fill:url(#_Linear13);"/>
                </g>
                <g transform="matrix(1,0,0,1,315,-175)">
                    <rect x="140" y="525" width="35" height="35" style="fill:url(#_Linear14);"/>
                </g>
                <g transform="matrix(1,0,0,1,490,-245)">
                    <rect x="140" y="525" width="35" height="35" style="fill:url(#_Linear15);"/>
                </g>
                <g transform="matrix(1,0,0,1,490,-350)">
                    <rect x="140" y="525" width="35" height="35" style="fill:url(#_Linear16);"/>
                </g>
                <g transform="matrix(1,0,0,1,490,-420)">
                    <rect x="140" y="525" width="35" height="35" style="fill:url(#_Linear17);"/>
                </g>
                <g transform="matrix(1,0,0,1,420,-455)">
                    <rect x="140" y="525" width="35" height="35" style="fill:url(#_Linear18);"/>
                </g>
                <g transform="matrix(1,0,0,1,560,-455)">
                    <rect x="140" y="525" width="35" height="35" style="fill:url(#_Linear19);"/>
                </g>
                <g transform="matrix(1,0,0,1,-70,140)">
                    <rect x="140" y="525" width="35" height="35" style="fill:url(#_Linear20);"/>
                </g>
                <g transform="matrix(1,0,0,1,700,315)">
                    <rect x="140" y="525" width="35" height="35" style="fill:url(#_Linear21);"/>
                </g>
                <g transform="matrix(1,0,0,1,840,175)">
                    <rect x="140" y="525" width="35" height="35" style="fill:url(#_Linear22);"/>
                </g>
                <g transform="matrix(1,0,0,1,805,-70)">
                    <rect x="140" y="525" width="35" height="35" style="fill:url(#_Linear23);"/>
                </g>
                <g transform="matrix(1,0,0,1,630,-105)">
                    <rect x="140" y="525" width="35" height="35" style="fill:url(#_Linear24);"/>
                </g>
                <g transform="matrix(1,0,0,1,560,0)">
                    <rect x="140" y="525" width="35" height="35" style="fill:url(#_Linear25);"/>
                </g>
                <g transform="matrix(1,0,0,1,630,-245)">
                    <rect x="140" y="525" width="35" height="35" style="fill:url(#_Linear26);"/>
                </g>
                <g transform="matrix(2,0,0,1,-210,245)">
                    <rect x="140" y="525" width="35" height="35" style="fill:url(#_Linear27);"/>
                </g>
                <g transform="matrix(2,0,0,1,0,246.263)">
                    <rect x="140" y="525" width="35" height="35" style="fill:url(#_Linear28);"/>
                </g>
                <g transform="matrix(2,0,0,1,70,385)">
                    <rect x="140" y="525" width="35" height="35" style="fill:url(#_Linear29);"/>
                </g>
                <rect x="350" y="70" width="35" height="35" style="fill:url(#_Linear30);"/>
                <path d="M525,210L525,175L560,175L560,140L525,140L525,70L455,70L455,140L420,140L420,105L385,105L385,175L350,175L350,350L280,350L280,385L315,385L315,420L210,420L210,490L175,490L175,525L245,525L245,595L315,595L315,560L280,560L280,525L315,525L315,490L280,490L280,455L315,455L315,490L350,490L350,525L385,525L385,630L420,630L420,595L490,595L490,560L455,560L455,525L420,525L420,490L455,490L455,455L420,455L420,420L455,420L455,385L420,385L420,350L385,350L385,245L420,245L420,315L455,315L455,280L490,280L490,315L525,315L525,280L560,280L560,350L525,350L525,385L595,385L595,350L630,350L630,315L595,315L595,245L630,245L630,210.253L595,210.253L595,175L560,175L560,210.253L525,210.253L525,245L455,245L455,210L525,210ZM384.786,385.244L350,385.244L350,455L384.786,455L384.786,385.244Z" style="fill:url(#_Linear31);"/>
                <rect x="140" y="140" width="105" height="105" style="fill:url(#_Linear32);"/>
                <g transform="matrix(1,0,0,1,770,0)">
                    <rect x="140" y="140" width="105" height="105" style="fill:url(#_Linear33);"/>
                </g>
                <g transform="matrix(1,0,0,1,0,770)">
                    <rect x="140" y="140" width="105" height="105" style="fill:url(#_Linear34);"/>
                </g>
                <path d="M315,70L70,70L70,315L315,315L315,70ZM106.137,106.137L106.137,278.863L278.863,278.863L278.863,106.137L106.137,106.137Z" style="fill:url(#_Linear35);"/>
                <g transform="matrix(1,0,0,1,770,0)">
                    <path d="M315,70L70,70L70,315L315,315L315,70ZM106.137,106.137L106.137,278.863L278.863,278.863L278.863,106.137L106.137,106.137Z" style="fill:url(#_Linear36);"/>
                </g>
                <g transform="matrix(1,0,0,1,0,770)">
                    <path d="M315,70L70,70L70,315L315,315L315,70ZM106.137,106.137L106.137,278.863L278.863,278.863L278.863,106.137L106.137,106.137Z" style="fill:url(#_Linear37);"/>
                </g>
                <path d="M70,350L70,490L105,490L105,525L140,525L140,490L175,490L175,455L105,455L105,420L140,420L140,385L105,385L105,350L70,350Z" style="fill:url(#_Linear38);"/>
                <path d="M175,560L175,595L140,595L140,665L175,665L175,805L245,805L245,770L210,770L210,665L245,665L245,595L210,595L210,560L175,560Z" style="fill:url(#_Linear39);"/>
                <path d="M420,735L245,735L245,665L280,665L280,700L350,700L350,630L385,630L385,665L420,665L420,735Z" style="fill:url(#_Linear40);"/>
                <path d="M350,1085L560,1085L560,1050L490,1050L490,945L525,945L525,1015L560,1015L560,945L595,945L595,910L630,910L630,875L665,875L665,805L560,805L560,735L630,735L630,700L665,700L665,665L595,665L595,700L525,700L525,735L490,735L490,700L525,700L525,665L456.161,665L456.161,735L420,735L420,770L385,770L385,805L350,805L350,875L385,875L385,840L420,840L420,875L455,875L456.161,980.308L420,980.308L420,1050L350,1050L350,1085ZM490,805L490,910L560,910L560,875L595,875L595,840L525,840L525,805L490,805Z" style="fill:url(#_Linear41);"/>
                <path d="M490,420L490,455L525,455L525,490L490,490L490,560L594.898,560L594.898,595L560,595L560,630L525,630L525,665L594.898,665L595,630L665,630L665,665L700,665L700,630L735,630L735,665L770,665L770,630L805,630L805,595L700,595L700,560L665,560L665,595L630,595L630,560L665,560L665,525L700,525L700,490L735,490L735,385L700,385L700,315L665,315L665,385L595,385L595,420L490,420ZM559.797,455L559.797,525L630,525L630,455L559.797,455ZM665,420L665,455L700,455L700,420L665,420Z" style="fill:url(#_Linear42);"/>
            </g>
        </g>
    </g>
    <defs>
        <linearGradient id="_Linear1" x1="0" y1="0" x2="1" y2="0" gradientUnits="userSpaceOnUse" gradientTransform="matrix(1015,0,0,1015,70,537.312)"><stop offset="0" style="stop-color:rgb(199,42,42);stop-opacity:1"/><stop offset="1" style="stop-color:rgb(229,81,81);stop-opacity:1"/></linearGradient>
        <linearGradient id="_Linear2" x1="0" y1="0" x2="1" y2="0" gradientUnits="userSpaceOnUse" gradientTransform="matrix(1015,0,0,1015,70,537.312)"><stop offset="0" style="stop-color:rgb(199,42,42);stop-opacity:1"/><stop offset="1" style="stop-color:rgb(229,81,81);stop-opacity:1"/></linearGradient>
        <linearGradient id="_Linear3" x1="0" y1="0" x2="1" y2="0" gradientUnits="userSpaceOnUse" gradientTransform="matrix(1015,0,0,1015,70,537.312)"><stop offset="0" style="stop-color:rgb(199,42,42);stop-opacity:1"/><stop offset="1" style="stop-color:rgb(229,81,81);stop-opacity:1"/></linearGradient>
        <linearGradient id="_Linear4" x1="0" y1="0" x2="1" y2="0" gradientUnits="userSpaceOnUse" gradientTransform="matrix(1015,0,0,1015,70,537.312)"><stop offset="0" style="stop-color:rgb(199,42,42);stop-opacity:1"/><stop offset="1" style="stop-color:rgb(229,81,81);stop-opacity:1"/></linearGradient>
        <linearGradient id="_Linear5" x1="0" y1="0" x2="1" y2="0" gradientUnits="userSpaceOnUse" gradientTransform="matrix(1015,0,0,1015,70,537.312)"><stop offset="0" style="stop-color:rgb(199,42,42);stop-opacity:1"/><stop offset="1" style="stop-color:rgb(229,81,81);stop-opacity:1"/></linearGradient>
        <linearGradient id="_Linear6" x1="0" y1="0" x2="1" y2="0" gradientUnits="userSpaceOnUse" gradientTransform="matrix(1015,0,0,1015,70,537.312)"><stop offset="0" style="stop-color:rgb(199,42,42);stop-opacity:1"/><stop offset="1" style="stop-color:rgb(229,81,81);stop-opacity:1"/></linearGradient>
        <linearGradient id="_Linear7" x1="0" y1="0" x2="1" y2="0" gradientUnits="userSpaceOnUse" gradientTransform="matrix(1015,0,0,1015,70,537.312)"><stop offset="0" style="stop-color:rgb(199,42,42);stop-opacity:1"/><stop offset="1" style="stop-color:rgb(229,81,81);stop-opacity:1"/></linearGradient>
        <linearGradient id="_Linear8" x1="0" y1="0" x2="1" y2="0" gradientUnits="userSpaceOnUse" gradientTransform="matrix(1015,0,0,1015,70,537.312)"><stop offset="0" style="stop-color:rgb(199,42,42);stop-opacity:1"/><stop offset="1" style="stop-color:rgb(229,81,81);stop-opacity:1"/></linearGradient>
        <linearGradient id="_Linear9" x1="0" y1="0" x2="1" y2="0" gradientUnits="userSpaceOnUse" gradientTransform="matrix(1015,0,0,1015,70,537.312)"><stop offset="0" style="stop-color:rgb(199,42,42);stop-opacity:1"/><stop offset="1" style="stop-color:rgb(229,81,81);stop-opacity:1"/></linearGradient>
        <linearGradient id="_Linear10" x1="0" y1="0" x2="1" y2="0" gradientUnits="userSpaceOnUse" gradientTransform="matrix(1015,0,0,1015,105,502.312)"><stop offset="0" style="stop-color:rgb(199,42,42);stop-opacity:1"/><stop offset="1" style="stop-color:rgb(229,81,81);stop-opacity:1"/></linearGradient>
        <linearGradient id="_Linear11" x1="0" y1="0" x2="1" y2="0" gradientUnits="userSpaceOnUse" gradientTransform="matrix(1015,0,0,1015,-70,432.312)"><stop offset="0" style="stop-color:rgb(199,42,42);stop-opacity:1"/><stop offset="1" style="stop-color:rgb(229,81,81);stop-opacity:1"/></linearGradient>
        <linearGradient id="_Linear12" x1="0" y1="0" x2="1" y2="0" gradientUnits="userSpaceOnUse" gradientTransform="matrix(1015,0,0,1015,-105,537.312)"><stop offset="0" style="stop-color:rgb(199,42,42);stop-opacity:1"/><stop offset="1" style="stop-color:rgb(229,81,81);stop-opacity:1"/></linearGradient>
        <linearGradient id="_Linear13" x1="0" y1="0" x2="1" y2="0" gradientUnits="userSpaceOnUse" gradientTransform="matrix(1015,0,0,1015,-280,467.312)"><stop offset="0" style="stop-color:rgb(199,42,42);stop-opacity:1"/><stop offset="1" style="stop-color:rgb(229,81,81);stop-opacity:1"/></linearGradient>
        <linearGradient id="_Linear14" x1="0" y1="0" x2="1" y2="0" gradientUnits="userSpaceOnUse" gradientTransform="matrix(1015,0,0,1015,-245,712.312)"><stop offset="0" style="stop-color:rgb(199,42,42);stop-opacity:1"/><stop offset="1" style="stop-color:rgb(229,81,81);stop-opacity:1"/></linearGradient>
        <linearGradient id="_Linear15" x1="0" y1="0" x2="1" y2="0" gradientUnits="userSpaceOnUse" gradientTransform="matrix(1015,0,0,1015,-420,782.312)"><stop offset="0" style="stop-color:rgb(199,42,42);stop-opacity:1"/><stop offset="1" style="stop-color:rgb(229,81,81);stop-opacity:1"/></linearGradient>
        <linearGradient id="_Linear16" x1="0" y1="0" x2="1" y2="0" gradientUnits="userSpaceOnUse" gradientTransform="matrix(1015,0,0,1015,-420,887.312)"><stop offset="0" style="stop-color:rgb(199,42,42);stop-opacity:1"/><stop offset="1" style="stop-color:rgb(229,81,81);stop-opacity:1"/></linearGradient>
        <linearGradient id="_Linear17" x1="0" y1="0" x2="1" y2="0" gradientUnits="userSpaceOnUse" gradientTransform="matrix(1015,0,0,1015,-420,957.312)"><stop offset="0" style="stop-color:rgb(199,42,42);stop-opacity:1"/><stop offset="1" style="stop-color:rgb(229,81,81);stop-opacity:1"/></linearGradient>
        <linearGradient id="_Linear18" x1="0" y1="0" x2="1" y2="0" gradientUnits="userSpaceOnUse" gradientTransform="matrix(1015,0,0,1015,-350,992.312)"><stop offset="0" style="stop-color:rgb(199,42,42);stop-opacity:1"/><stop offset="1" style="stop-color:rgb(229,81,81);stop-opacity:1"/></linearGradient>
        <linearGradient id="_Linear19" x1="0" y1="0" x2="1" y2="0" gradientUnits="userSpaceOnUse" gradientTransform="matrix(1015,0,0,1015,-490,992.312)"><stop offset="0" style="stop-color:rgb(199,42,42);stop-opacity:1"/><stop offset="1" style="stop-color:rgb(229,81,81);stop-opacity:1"/></linearGradient>
        <linearGradient id="_Linear20" x1="0" y1="0" x2="1" y2="0" gradientUnits="userSpaceOnUse" gradientTransform="matrix(1015,0,0,1015,140,397.312)"><stop offset="0" style="stop-color:rgb(199,42,42);stop-opacity:1"/><stop offset="1" style="stop-color:rgb(229,81,81);stop-opacity:1"/></linearGradient>
        <linearGradient id="_Linear21" x1="0" y1="0" x2="1" y2="0" gradientUnits="userSpaceOnUse" gradientTransform="matrix(1015,0,0,1015,-630,222.312)"><stop offset="0" style="stop-color:rgb(199,42,42);stop-opacity:1"/><stop offset="1" style="stop-color:rgb(229,81,81);stop-opacity:1"/></linearGradient>
        <linearGradient id="_Linear22" x1="0" y1="0" x2="1" y2="0" gradientUnits="userSpaceOnUse" gradientTransform="matrix(1015,0,0,1015,-770,362.312)"><stop offset="0" style="stop-color:rgb(199,42,42);stop-opacity:1"/><stop offset="1" style="stop-color:rgb(229,81,81);stop-opacity:1"/></linearGradient>
        <linearGradient id="_Linear23" x1="0" y1="0" x2="1" y2="0" gradientUnits="userSpaceOnUse" gradientTransform="matrix(1015,0,0,1015,-735,607.312)"><stop offset="0" style="stop-color:rgb(199,42,42);stop-opacity:1"/><stop offset="1" style="stop-color:rgb(229,81,81);stop-opacity:1"/></linearGradient>
        <linearGradient id="_Linear24" x1="0" y1="0" x2="1" y2="0" gradientUnits="userSpaceOnUse" gradientTransform="matrix(1015,0,0,1015,-560,642.312)"><stop offset="0" style="stop-color:rgb(199,42,42);stop-opacity:1"/><stop offset="1" style="stop-color:rgb(229,81,81);stop-opacity:1"/></linearGradient>
        <linearGradient id="_Linear25" x1="0" y1="0" x2="1" y2="0" gradientUnits="userSpaceOnUse" gradientTransform="matrix(1015,0,0,1015,-490,537.312)"><stop offset="0" style="stop-color:rgb(199,42,42);stop-opacity:1"/><stop offset="1" style="stop-color:rgb(229,81,81);stop-opacity:1"/></linearGradient>
        <linearGradient id="_Linear26" x1="0" y1="0" x2="1" y2="0" gradientUnits="userSpaceOnUse" gradientTransform="matrix(1015,0,0,1015,-560,782.312)"><stop offset="0" style="stop-color:rgb(199,42,42);stop-opacity:1"/><stop offset="1" style="stop-color:rgb(229,81,81);stop-opacity:1"/></linearGradient>
        <linearGradient id="_Linear27" x1="0" y1="0" x2="1" y2="0" gradientUnits="userSpaceOnUse" gradientTransform="matrix(507.5,0,0,1015,140,292.312)"><stop offset="0" style="stop-color:rgb(199,42,42);stop-opacity:1"/><stop offset="1" style="stop-color:rgb(229,81,81);stop-opacity:1"/></linearGradient>
        <linearGradient id="_Linear28" x1="0" y1="0" x2="1" y2="0" gradientUnits="userSpaceOnUse" gradientTransform="matrix(507.5,0,0,1015,35,291.049)"><stop offset="0" style="stop-color:rgb(199,42,42);stop-opacity:1"/><stop offset="1" style="stop-color:rgb(229,81,81);stop-opacity:1"/></linearGradient>
        <linearGradient id="_Linear29" x1="0" y1="0" x2="1" y2="0" gradientUnits="userSpaceOnUse" gradientTransform="matrix(507.5,0,0,1015,-2.27374e-13,152.312)"><stop offset="0" style="stop-color:rgb(199,42,42);stop-opacity:1"/><stop offset="1" style="stop-color:rgb(229,81,81);stop-opacity:1"/></linearGradient>
        <linearGradient id="_Linear30" x1="0" y1="0" x2="1" y2="0" gradientUnits="userSpaceOnUse" gradientTransform="matrix(1015,0,0,1015,70,537.312)"><stop offset="0" style="stop-color:rgb(199,42,42);stop-opacity:1"/><stop offset="1" style="stop-color:rgb(229,81,81);stop-opacity:1"/></linearGradient>
        <linearGradient id="_Linear31" x1="0" y1="0" x2="1" y2="0" gradientUnits="userSpaceOnUse" gradientTransform="matrix(1015,0,0,1015,70,537.312)"><stop offset="0" style="stop-color:rgb(199,42,42);stop-opacity:1"/><stop offset="1" style="stop-color:rgb(229,81,81);stop-opacity:1"/></linearGradient>
        <linearGradient id="_Linear32" x1="0" y1="0" x2="1" y2="0" gradientUnits="userSpaceOnUse" gradientTransform="matrix(1015,0,0,1015,70,537.312)"><stop offset="0" style="stop-color:rgb(199,42,42);stop-opacity:1"/><stop offset="1" style="stop-color:rgb(229,81,81);stop-opacity:1"/></linearGradient>
        <linearGradient id="_Linear33" x1="0" y1="0" x2="1" y2="0" gradientUnits="userSpaceOnUse" gradientTransform="matrix(1015,0,0,1015,-700,537.312)"><stop offset="0" style="stop-color:rgb(199,42,42);stop-opacity:1"/><stop offset="1" style="stop-color:rgb(229,81,81);stop-opacity:1"/></linearGradient>
        <linearGradient id="_Linear34" x1="0" y1="0" x2="1" y2="0" gradientUnits="userSpaceOnUse" gradientTransform="matrix(1015,0,0,1015,70,-232.688)"><stop offset="0" style="stop-color:rgb(199,42,42);stop-opacity:1"/><stop offset="1" style="stop-color:rgb(229,81,81);stop-opacity:1"/></linearGradient>
        <linearGradient id="_Linear35" x1="0" y1="0" x2="1" y2="0" gradientUnits="userSpaceOnUse" gradientTransform="matrix(1015,0,0,1015,70,537.312)"><stop offset="0" style="stop-color:rgb(199,42,42);stop-opacity:1"/><stop offset="1" style="stop-color:rgb(229,81,81);stop-opacity:1"/></linearGradient>
        <linearGradient id="_Linear36" x1="0" y1="0" x2="1" y2="0" gradientUnits="userSpaceOnUse" gradientTransform="matrix(1015,0,0,1015,-700,537.312)"><stop offset="0" style="stop-color:rgb(199,42,42);stop-opacity:1"/><stop offset="1" style="stop-color:rgb(229,81,81);stop-opacity:1"/></linearGradient>
        <linearGradient id="_Linear37" x1="0" y1="0" x2="1" y2="0" gradientUnits="userSpaceOnUse" gradientTransform="matrix(1015,0,0,1015,70,-232.688)"><stop offset="0" style="stop-color:rgb(199,42,42);stop-opacity:1"/><stop offset="1" style="stop-color:rgb(229,81,81);stop-opacity:1"/></linearGradient>
        <linearGradient id="_Linear38" x1="0" y1="0" x2="1" y2="0" gradientUnits="userSpaceOnUse" gradientTransform="matrix(1015,0,0,1015,70,537.312)"><stop offset="0" style="stop-color:rgb(199,42,42);stop-opacity:1"/><stop offset="1" style="stop-color:rgb(229,81,81);stop-opacity:1"/></linearGradient>
        <linearGradient id="_Linear39" x1="0" y1="0" x2="1" y2="0" gradientUnits="userSpaceOnUse" gradientTransform="matrix(1015,0,0,1015,70,537.312)"><stop offset="0" style="stop-color:rgb(199,42,42);stop-opacity:1"/><stop offset="1" style="stop-color:rgb(229,81,81);stop-opacity:1"/></linearGradient>
        <linearGradient id="_Linear40" x1="0" y1="0" x2="1" y2="0" gradientUnits="userSpaceOnUse" gradientTransform="matrix(1015,0,0,1015,70,537.312)"><stop offset="0" style="stop-color:rgb(199,42,42);stop-opacity:1"/><stop offset="1" style="stop-color:rgb(229,81,81);stop-opacity:1"/></linearGradient>
        <linearGradient id="_Linear41" x1="0" y1="0" x2="1" y2="0" gradientUnits="userSpaceOnUse" gradientTransform="matrix(1015,0,0,1015,70,537.312)"><stop offset="0" style="stop-color:rgb(199,42,42);stop-opacity:1"/><stop offset="1" style="stop-color:rgb(229,81,81);stop-opacity:1"/></linearGradient>
        <linearGradient id="_Linear42" x1="0" y1="0" x2="1" y2="0" gradientUnits="userSpaceOnUse" gradientTransform="matrix(1015,0,0,1015,70,537.312)"><stop offset="0" style="stop-color:rgb(199,42,42);stop-opacity:1"/><stop offset="1" style="stop-color:rgb(229,81,81);stop-opacity:1"/></linearGradient>
    </defs>
</svg>
